<?xml version="1.0" encoding="utf-8"?>
<svg width="63.199" height="91.529" viewBox="0 0 63.199 91.529" fill="none" xmlns="http://www.w3.org/2000/svg">
  <g>
    <path d="M29.5435 0.00900221C29.8194 0.00671226 30.0952 0.00529453 30.3711 0.00404615C30.4893 0.00304952 30.4893 0.00304952 30.6098 0.00203276C30.6847 0.00177721 30.7596 0.00152166 30.8367 0.00125837C30.906 0.00084311 30.9754 0.000427847 31.0468 0C31.2087 0.00900221 31.2087 0.00900221 31.288 0.0882991C31.4175 0.10076 31.5474 0.108191 31.6774 0.113389C31.7558 0.116711 31.8343 0.120033 31.9151 0.123456C31.9976 0.126574 32.0802 0.129691 32.1652 0.132904C32.2895 0.13804 32.2895 0.13804 32.4163 0.14328C32.6217 0.151722 32.8271 0.159811 33.0325 0.167596C33.0325 0.219932 33.0325 0.272268 33.0325 0.32619C33.1675 0.323736 33.1675 0.323736 33.3051 0.321234C33.5876 0.32619 33.5876 0.32619 33.6669 0.405487C33.7855 0.421901 33.9045 0.434572 34.0238 0.445135C34.3718 0.475973 34.3718 0.475973 34.4599 0.56408C34.5433 0.573893 34.6267 0.583706 34.7126 0.593817C35.023 0.644695 35.2126 0.739468 35.4907 0.881268C35.6156 0.921444 35.7413 0.959246 35.8674 0.995257C36.5727 1.20053 37.1775 1.48446 37.8074 1.86319C38.0603 2.01004 38.311 2.12408 38.5833 2.22931C38.5833 2.28165 38.5833 2.33399 38.5833 2.38791C38.6324 2.39936 38.6814 2.41081 38.732 2.4226C38.9005 2.46721 38.9005 2.46721 39.0591 2.5465C39.0591 2.59884 39.0591 2.65117 39.0591 2.7051C39.1376 2.7051 39.2161 2.7051 39.297 2.7051C39.297 2.75743 39.297 2.80977 39.297 2.86369C39.3755 2.86369 39.454 2.86369 39.5349 2.86369C39.5349 2.91603 39.5349 2.96836 39.5349 3.02228C39.6134 3.02228 39.6919 3.02228 39.7728 3.02228C39.7728 3.07462 39.7728 3.12695 39.7728 3.18088C39.8513 3.18088 39.9298 3.18088 40.0107 3.18088C40.0107 3.23321 40.0107 3.28555 40.0107 3.33947C40.1415 3.39181 40.2723 3.44414 40.4071 3.49806C40.4071 3.5504 40.4071 3.60274 40.4071 3.65666C40.4546 3.67956 40.502 3.70245 40.5509 3.72604C40.7243 3.81525 40.7243 3.81525 40.9622 3.97385C40.9622 4.02618 40.9622 4.07852 40.9622 4.13244C41.0669 4.18478 41.1716 4.23711 41.2794 4.29103C41.2794 4.34337 41.2794 4.3957 41.2794 4.44963C41.3317 4.44963 41.3841 4.44963 41.438 4.44963C41.438 4.50196 41.438 4.5543 41.438 4.60822C41.5427 4.66056 41.6474 4.71289 41.7552 4.76681C41.7552 4.81915 41.7552 4.87149 41.7552 4.92541C41.8075 4.92541 41.8599 4.92541 41.9138 4.92541C41.9138 4.97774 41.9138 5.03008 41.9138 5.084C41.9661 5.084 42.0185 5.084 42.0724 5.084C42.0724 5.13634 42.0724 5.18867 42.0724 5.2426C42.1247 5.2426 42.1771 5.2426 42.231 5.2426C42.231 5.29493 42.231 5.34727 42.231 5.40119C42.2833 5.40119 42.3356 5.40119 42.3896 5.40119C42.3896 5.45353 42.3896 5.50586 42.3896 5.55978C42.4419 5.55978 42.4942 5.55978 42.5482 5.55978C42.8654 5.98892 42.8654 5.98892 42.8654 6.19416C42.9177 6.19416 42.97 6.19416 43.0239 6.19416C43.3299 6.52169 43.549 6.86688 43.6583 7.30431C43.7107 7.30431 43.763 7.30431 43.8169 7.30431C43.8692 7.46132 43.9216 7.61833 43.9755 7.7801C44.0278 7.7801 44.0802 7.7801 44.1341 7.7801C44.1341 7.88477 44.1341 7.98944 44.1341 8.09728C44.1864 8.09728 44.2388 8.09728 44.2927 8.09728C44.4326 8.34216 44.4513 8.43296 44.4513 8.73166C44.5036 8.73166 44.556 8.73166 44.6099 8.73166C44.7498 8.97653 44.7685 9.06733 44.7685 9.36603C44.8208 9.36603 44.8731 9.36603 44.9271 9.36603C44.9614 9.45762 44.9958 9.54921 45.0311 9.64357C45.0528 9.70122 45.0745 9.75887 45.0968 9.81827C45.141 9.93626 45.1848 10.0544 45.2281 10.1726C45.3448 10.491 45.3448 10.491 45.4871 10.7983C45.6884 11.2143 45.7387 11.6044 45.72 12.0621C45.7724 12.0621 45.8247 12.0621 45.8786 12.0621C45.8901 12.1521 45.9015 12.242 45.9133 12.3347C45.9271 12.602 45.9271 12.602 46.0372 12.6965C46.0631 12.9837 46.078 13.271 46.0942 13.5589C46.0889 13.7959 46.0889 13.7959 46.1958 13.886C46.2037 14.0291 46.206 14.1725 46.2061 14.3159C46.2065 14.4536 46.2065 14.4536 46.2068 14.5941C46.2067 14.6941 46.2065 14.794 46.2063 14.897C46.2064 14.9988 46.2065 15.1006 46.2066 15.2054C46.2067 15.4211 46.2065 15.6369 46.2062 15.8526C46.2057 16.1296 46.206 16.4067 46.2064 16.6838C46.2068 16.9472 46.2065 17.2107 46.2063 17.4741C46.2065 17.5741 46.2067 17.674 46.2068 17.777C46.2066 17.8688 46.2063 17.9606 46.2061 18.0552C46.206 18.1772 46.206 18.1772 46.2059 18.3016C46.1958 18.4852 46.1958 18.4852 46.1165 18.5645C46.0738 18.789 46.0344 19.013 45.9976 19.2385C45.8893 19.9018 45.8893 19.9018 45.7993 19.9918C45.7895 20.0703 45.7797 20.1488 45.7696 20.2297C45.7224 20.5908 45.6025 20.9183 45.4821 21.2606C45.4424 21.3844 45.4028 21.5083 45.3632 21.6323C45.2679 21.9196 45.1442 22.1803 45.0064 22.45C44.9835 22.522 44.9606 22.5939 44.937 22.6681C44.7032 23.3433 44.3204 23.9676 43.9755 24.591C43.9232 24.591 43.8708 24.591 43.8169 24.591C43.8065 24.6551 43.8065 24.6551 43.7958 24.7205C43.6146 25.3047 43.1255 25.8922 42.7068 26.3356C42.6544 26.3356 42.6021 26.3356 42.5482 26.3356C42.5318 26.3895 42.5154 26.4435 42.4986 26.4991C42.3556 26.8047 42.1595 27.0554 41.9138 27.2871C41.8615 27.2871 41.8091 27.2871 41.7552 27.2871C41.7552 27.3395 41.7552 27.3918 41.7552 27.4457C41.7029 27.4457 41.6505 27.4457 41.5966 27.4457C41.5443 27.5504 41.4919 27.6551 41.438 27.7629C41.3857 27.7629 41.3333 27.7629 41.2794 27.7629C41.2794 27.8152 41.2794 27.8676 41.2794 27.9215C41.1636 28.0411 41.1636 28.0411 41.0118 28.1693C40.9373 28.2334 40.9373 28.2334 40.8612 28.2988C40.7243 28.3973 40.7243 28.3973 40.5657 28.3973C40.5657 28.4496 40.5657 28.502 40.5657 28.5559C40.4349 28.6082 40.3041 28.6605 40.1693 28.7145C40.1693 28.7668 40.1693 28.8191 40.1693 28.8731C39.9314 29.0317 39.9314 29.0317 39.6935 29.0317C39.7213 29.2403 39.7431 29.3255 39.9115 29.4579C40.1505 29.5242 40.2694 29.4573 40.4864 29.3488C40.4864 29.2965 40.4864 29.2442 40.4864 29.1902C40.5649 29.1902 40.6434 29.1902 40.7243 29.1902C40.7243 29.1379 40.7243 29.0856 40.7243 29.0317C40.8552 28.9793 40.986 28.927 41.1208 28.8731C41.1208 28.8207 41.1208 28.7684 41.1208 28.7145C41.1993 28.7145 41.2778 28.7145 41.3587 28.7145C41.3587 28.6621 41.3587 28.6098 41.3587 28.5559C41.4372 28.5559 41.5157 28.5559 41.5966 28.5559C41.5966 28.5035 41.5966 28.4512 41.5966 28.3973C41.6489 28.3973 41.7013 28.3973 41.7552 28.3973C41.7552 28.3449 41.7552 28.2926 41.7552 28.2387C42.1843 27.9215 42.1843 27.9215 42.3896 27.9215C42.3896 27.8692 42.3896 27.8168 42.3896 27.7629C42.5401 27.6433 42.5401 27.6433 42.7365 27.5151C42.8009 27.4724 42.8653 27.4296 42.9316 27.3856C43.1032 27.2871 43.1032 27.2871 43.2618 27.2871C43.2618 27.2348 43.2618 27.1825 43.2618 27.1285C43.6163 26.8113 43.6163 26.8113 43.8169 26.8113C43.8169 26.759 43.8169 26.7067 43.8169 26.6527C43.8954 26.6527 43.9739 26.6527 44.0548 26.6527C44.0548 26.6004 44.0548 26.5481 44.0548 26.4942C44.2199 26.36 44.2199 26.36 44.4364 26.2117C44.5073 26.1625 44.5781 26.1133 44.6511 26.0627C44.8478 25.9391 44.8478 25.9391 45.0857 25.8598C45.0857 25.8074 45.0857 25.7551 45.0857 25.7012C45.2165 25.6489 45.3473 25.5965 45.4821 25.5426C45.4821 25.4903 45.4821 25.4379 45.4821 25.384C45.6153 25.2644 45.6153 25.2644 45.7894 25.1362C45.8465 25.0935 45.9035 25.0507 45.9623 25.0067C46.1165 24.9082 46.1165 24.9082 46.2751 24.9082C46.2751 24.8559 46.2751 24.8035 46.2751 24.7496C46.4059 24.6973 46.5368 24.645 46.6716 24.591C46.6716 24.5387 46.6716 24.4864 46.6716 24.4324C47.1007 24.1152 47.1007 24.1152 47.306 24.1152C47.306 24.0629 47.306 24.0106 47.306 23.9567C47.3583 23.9567 47.4106 23.9567 47.4646 23.9567C47.4646 23.9043 47.4646 23.852 47.4646 23.7981C47.5954 23.7457 47.7262 23.6934 47.8611 23.6395C47.8611 23.5871 47.8611 23.5348 47.8611 23.4809C47.9859 23.3725 47.9859 23.3725 48.1535 23.2529C48.349 23.1117 48.5373 22.9705 48.7234 22.8168C48.8919 22.6879 48.8919 22.6879 49.0505 22.6879C49.0505 22.6356 49.0505 22.5832 49.0505 22.5293C49.1813 22.477 49.3122 22.4246 49.447 22.3707C49.447 22.3184 49.447 22.266 49.447 22.2121C49.8015 21.8949 49.8015 21.8949 50.0021 21.8949C50.0021 21.8426 50.0021 21.7903 50.0021 21.7363C50.4312 21.4192 50.4312 21.4192 50.6364 21.4192C50.6888 21.3145 50.7411 21.2098 50.795 21.102C50.8474 21.102 50.8997 21.102 50.9536 21.102C50.9536 21.0496 50.9536 20.9973 50.9536 20.9434C51.0845 20.891 51.2153 20.8387 51.3501 20.7848C51.3501 20.7324 51.3501 20.6801 51.3501 20.6262C51.4286 20.6262 51.5071 20.6262 51.588 20.6262C51.588 20.5739 51.588 20.5215 51.588 20.4676C51.6403 20.4676 51.6927 20.4676 51.7466 20.4676C51.7466 20.4153 51.7466 20.3629 51.7466 20.309C51.7989 20.309 51.8513 20.309 51.9052 20.309C51.9052 20.2567 51.9052 20.2043 51.9052 20.1504C52.036 20.0981 52.1669 20.0457 52.3017 19.9918C52.3017 19.9395 52.3017 19.8871 52.3017 19.8332C52.3802 19.8332 52.4587 19.8332 52.5396 19.8332C52.5396 19.7809 52.5396 19.7285 52.5396 19.6746C52.7075 19.5204 52.7075 19.5204 52.9261 19.3475C53.0338 19.2614 53.0338 19.2614 53.1436 19.1734C53.3325 19.0403 53.3325 19.0403 53.4911 19.0403C53.4911 18.9879 53.4911 18.9356 53.4911 18.8817C53.5435 18.8817 53.5958 18.8817 53.6497 18.8817C53.6497 18.8293 53.6497 18.777 53.6497 18.7231C53.7282 18.7231 53.8067 18.7231 53.8876 18.7231C53.9056 18.674 53.9236 18.6249 53.9421 18.5744C54.0763 18.3572 54.2042 18.3226 54.4427 18.2473C54.4427 18.1949 54.4427 18.1426 54.4427 18.0887C54.495 18.0887 54.5474 18.0887 54.6013 18.0887C54.6013 18.0364 54.6013 17.984 54.6013 17.9301C54.6798 17.9301 54.7583 17.9301 54.8392 17.9301C54.8392 17.8778 54.8392 17.8254 54.8392 17.7715C54.8915 17.7715 54.9438 17.7715 54.9978 17.7715C54.9978 17.7192 54.9978 17.6668 54.9978 17.6129C55.1286 17.5606 55.2594 17.5082 55.3943 17.4543C55.3943 17.402 55.3943 17.3496 55.3943 17.2957C55.4466 17.2957 55.4989 17.2957 55.5528 17.2957C55.5528 17.2434 55.5528 17.191 55.5528 17.1371C55.6314 17.1371 55.7099 17.1371 55.7907 17.1371C55.7907 17.0848 55.7907 17.0325 55.7907 16.9785C56.1452 16.6613 56.1452 16.6613 56.3458 16.6613C56.3458 16.609 56.3458 16.5567 56.3458 16.5028C56.3981 16.5028 56.4505 16.5028 56.5044 16.5028C56.5044 16.4504 56.5044 16.3981 56.5044 16.3442C56.9335 16.027 56.9335 16.027 57.1388 16.027C57.1277 15.8303 57.116 15.6338 57.1041 15.4372C57.101 15.3811 57.0979 15.3251 57.0946 15.2673C57.101 14.9892 57.101 14.9892 56.9802 14.7582C56.9579 14.4631 56.9618 14.1669 56.9604 13.8711C56.9579 13.7471 56.9579 13.7471 56.9554 13.6206C56.9531 13.1734 56.9619 12.8436 57.2181 12.4586C57.2974 12.3793 57.2974 12.3793 57.548 12.3716C57.7011 12.3729 57.7011 12.3729 57.8574 12.3744C57.9597 12.3751 58.062 12.3758 58.1675 12.3765C58.2863 12.3779 58.2863 12.3779 58.4075 12.3793C58.4075 12.4316 58.4075 12.484 58.4075 12.5379C58.4599 12.5379 58.5122 12.5379 58.5661 12.5379C58.7377 12.9889 58.7566 13.4042 58.7768 13.8822C58.7796 14.1323 58.7796 14.1323 58.9626 14.2824C59.0166 14.2039 59.0166 14.2039 59.0716 14.1238C59.1142 14.0715 59.1567 14.0192 59.2005 13.9653C59.2528 13.9653 59.3052 13.9653 59.3591 13.9653C59.382 13.9047 59.4049 13.8442 59.4285 13.7819C59.5177 13.5688 59.5177 13.5688 59.6763 13.3309C59.7286 13.3309 59.781 13.3309 59.8349 13.3309C59.8447 13.2622 59.8447 13.2622 59.8547 13.1921C59.9315 12.9618 60.0479 12.8521 60.2314 12.6965C60.2837 12.6965 60.336 12.6965 60.39 12.6965C60.39 12.6442 60.39 12.5918 60.39 12.5379C60.5551 12.5293 60.7203 12.5232 60.8856 12.5181C60.9776 12.5144 61.0696 12.5107 61.1643 12.5069C61.4208 12.5379 61.4208 12.5379 61.6095 12.6702C61.812 12.9616 61.795 13.2016 61.786 13.548C61.7034 13.9931 61.4555 14.3257 61.1829 14.6789C61.2289 14.666 61.2749 14.6531 61.3222 14.6398C61.5974 14.5777 61.8738 14.5914 62.1543 14.5947C62.2134 14.595 62.2725 14.5954 62.3333 14.5958C62.4785 14.5967 62.6237 14.5981 62.7689 14.5996C62.7689 14.652 62.7689 14.7043 62.7689 14.7582C62.8474 14.7582 62.9259 14.7582 63.0068 14.7582C63.2417 15.1106 63.2162 15.455 63.1653 15.8684C62.9989 16.1121 62.8067 16.2408 62.531 16.3442C62.4263 16.3442 62.3216 16.3442 62.2138 16.3442C62.2138 16.3965 62.2138 16.4488 62.2138 16.5028C61.9356 16.6299 61.7266 16.6788 61.4208 16.6613C61.4208 16.7137 61.4208 16.766 61.4208 16.8199C61.5255 16.8199 61.6302 16.8199 61.738 16.8199C61.738 16.8723 61.738 16.9246 61.738 16.9785C61.8427 16.9785 61.9473 16.9785 62.0552 16.9785C62.0552 17.0309 62.0552 17.0832 62.0552 17.1371C62.1599 17.1371 62.2645 17.1371 62.3724 17.1371C62.3724 17.1895 62.3724 17.2418 62.3724 17.2957C62.4509 17.2957 62.5294 17.2957 62.6103 17.2957C62.6103 17.3481 62.6103 17.4004 62.6103 17.4543C62.6863 17.4911 62.6863 17.4911 62.7639 17.5287C62.9275 17.6129 62.9275 17.6129 63.0068 17.6922C63.01 17.8772 63.0101 18.0623 63.0068 18.2473C63.0591 18.2473 63.1114 18.2473 63.1653 18.2473C63.1653 18.4043 63.1653 18.5613 63.1653 18.7231C63.113 18.7231 63.0607 18.7231 63.0068 18.7231C63.0068 18.7754 63.0068 18.8277 63.0068 18.8817C62.4311 18.8817 61.8554 18.8817 61.2622 18.8817C61.2622 18.8293 61.2622 18.777 61.2622 18.7231C61.1575 18.7231 61.0529 18.7231 60.945 18.7231C60.945 18.6707 60.945 18.6184 60.945 18.5645C60.8404 18.5645 60.7357 18.5645 60.6278 18.5645C60.6533 18.6322 60.6788 18.7 60.705 18.7698C60.8358 19.204 60.8399 19.6223 60.7864 20.0711C60.6427 20.3338 60.6427 20.3338 60.39 20.4676C59.9842 20.5333 59.6451 20.5366 59.2798 20.3387C58.8991 19.8867 58.6887 19.3167 58.7247 18.7231C58.6724 18.7231 58.6201 18.7231 58.5661 18.7231C58.5661 18.7754 58.5661 18.8277 58.5661 18.8817C58.5138 18.8817 58.4615 18.8817 58.4075 18.8817C58.4075 18.934 58.4075 18.9863 58.4075 19.0403C58.3552 19.0403 58.3029 19.0403 58.2489 19.0403C58.2489 19.0926 58.2489 19.1449 58.2489 19.1988C58.1157 19.3184 58.1157 19.3184 57.9417 19.4466C57.8846 19.4894 57.8276 19.5321 57.7688 19.5761C57.6146 19.6746 57.6146 19.6746 57.456 19.6746C57.456 19.727 57.456 19.7793 57.456 19.8332C57.4036 19.8332 57.3513 19.8332 57.2974 19.8332C57.2974 19.8856 57.2974 19.9379 57.2974 19.9918C57.1642 20.1114 57.1642 20.1114 56.9901 20.2396C56.9331 20.2823 56.876 20.3251 56.8173 20.3691C56.663 20.4676 56.663 20.4676 56.5044 20.4676C56.5044 20.5199 56.5044 20.5723 56.5044 20.6262C56.3365 20.7804 56.3365 20.7804 56.1178 20.9533C56.0461 21.0107 55.9743 21.0682 55.9004 21.1274C55.7114 21.2606 55.7114 21.2606 55.5528 21.2606C55.5528 21.3129 55.5528 21.3652 55.5528 21.4192C55.385 21.5734 55.385 21.5734 55.1663 21.7463C55.0945 21.8037 55.0228 21.8611 54.9488 21.9203C54.7599 22.0535 54.7599 22.0535 54.6013 22.0535C54.6013 22.1059 54.6013 22.1582 54.6013 22.2121C54.4737 22.3261 54.4737 22.3261 54.3039 22.45C54.2487 22.4909 54.1935 22.5318 54.1367 22.5739C53.9787 22.68 53.8218 22.7659 53.6497 22.8465C53.6497 22.8988 53.6497 22.9512 53.6497 23.0051C53.2206 23.3223 53.2206 23.3223 53.0153 23.3223C52.963 23.427 52.9107 23.5316 52.8568 23.6395C52.8044 23.6395 52.7521 23.6395 52.6982 23.6395C52.6982 23.6918 52.6982 23.7441 52.6982 23.7981C52.269 24.1152 52.269 24.1152 52.0638 24.1152C52.0638 24.1676 52.0638 24.2199 52.0638 24.2738C52.0115 24.2738 51.9591 24.2738 51.9052 24.2738C51.9052 24.3262 51.9052 24.3785 51.9052 24.4324C51.772 24.552 51.772 24.552 51.5979 24.6802C51.5409 24.723 51.4838 24.7657 51.4251 24.8097C51.2708 24.9082 51.2708 24.9082 51.1122 24.9082C51.1122 24.9606 51.1122 25.0129 51.1122 25.0668C50.9443 25.2211 50.9443 25.2211 50.7257 25.3939C50.6539 25.4514 50.5821 25.5088 50.5082 25.568C50.3193 25.7012 50.3193 25.7012 50.1607 25.7012C50.1607 25.7535 50.1607 25.8059 50.1607 25.8598C50.0275 25.9793 50.0275 25.9793 49.8534 26.1076C49.7963 26.1503 49.7393 26.193 49.6805 26.2371C49.5263 26.3356 49.5263 26.3356 49.3677 26.3356C49.3677 26.3879 49.3677 26.4402 49.3677 26.4942C49.2369 26.5465 49.106 26.5988 48.9712 26.6527C48.9712 26.7051 48.9712 26.7574 48.9712 26.8113C48.8927 26.8113 48.8142 26.8113 48.7333 26.8113C48.7333 26.8637 48.7333 26.916 48.7333 26.9699C48.681 26.9699 48.6286 26.9699 48.5747 26.9699C48.5747 27.0223 48.5747 27.0746 48.5747 27.1285C48.4439 27.1809 48.313 27.2332 48.1782 27.2871C48.1782 27.3395 48.1782 27.3918 48.1782 27.4457C48.0474 27.4981 47.9166 27.5504 47.7818 27.6043C47.7818 27.6566 47.7818 27.709 47.7818 27.7629C47.5439 27.9215 47.5439 27.9215 47.306 27.9215C47.2536 28.0262 47.2013 28.1308 47.1474 28.2387C47.095 28.2387 47.0427 28.2387 46.9888 28.2387C46.9888 28.291 46.9888 28.3434 46.9888 28.3973C46.5597 28.7145 46.5597 28.7145 46.3544 28.7145C46.3544 28.7668 46.3544 28.8191 46.3544 28.8731C46.2212 28.9926 46.2212 28.9926 46.0471 29.1209C45.9901 29.1636 45.9331 29.2063 45.8743 29.2503C45.72 29.3488 45.72 29.3488 45.5614 29.3488C45.5614 29.4012 45.5614 29.4535 45.5614 29.5074C45.4829 29.5074 45.4044 29.5074 45.3236 29.5074C45.3236 29.5598 45.3236 29.6121 45.3236 29.666C45.173 29.7856 45.173 29.7856 44.9766 29.9138C44.9122 29.9566 44.8478 29.9993 44.7815 30.0433C44.6099 30.1418 44.6099 30.1418 44.4513 30.1418C44.4513 30.1941 44.4513 30.2465 44.4513 30.3004C44.399 30.3004 44.3466 30.3004 44.2927 30.3004C44.2927 30.3527 44.2927 30.4051 44.2927 30.459C43.8636 30.7762 43.8636 30.7762 43.6583 30.7762C43.6583 30.8285 43.6583 30.8809 43.6583 30.9348C43.5267 31.041 43.5267 31.041 43.3362 31.1677C43.0717 31.3465 42.8114 31.5285 42.5562 31.7203C42.5033 31.76 42.4503 31.7997 42.3958 31.8405C42.2901 31.92 42.1847 31.9998 42.0796 32.0801C41.7022 32.3621 41.7022 32.3621 41.438 32.3621C41.4609 32.4042 41.4838 32.4464 41.5074 32.4897C41.5368 32.5458 41.5663 32.6018 41.5966 32.6595C41.626 32.7147 41.6555 32.7699 41.6858 32.8268C41.7552 32.9965 41.7552 32.9965 41.7552 33.3137C41.8075 33.3137 41.8599 33.3137 41.9138 33.3137C41.9138 33.4184 41.9138 33.523 41.9138 33.6309C41.9661 33.6309 42.0185 33.6309 42.0724 33.6309C42.1372 33.7562 42.2015 33.8818 42.2657 34.0075C42.3015 34.0774 42.3374 34.1474 42.3744 34.2194C42.4557 34.3955 42.5097 34.5519 42.5482 34.741C42.6005 34.741 42.6528 34.741 42.7068 34.741C42.7278 34.7898 42.7489 34.8385 42.7706 34.8888C42.7986 34.9529 42.8266 35.017 42.8554 35.083C42.883 35.1465 42.9106 35.21 42.9391 35.2754C43.026 35.4703 43.026 35.4703 43.1825 35.6926C43.1825 35.7973 43.1825 35.9019 43.1825 36.0098C43.2349 36.0098 43.2872 36.0098 43.3411 36.0098C43.3844 36.0904 43.3844 36.0904 43.4285 36.1727C43.6715 36.6227 43.9226 37.0652 44.1899 37.5012C44.4513 37.943 44.4513 37.943 44.4513 38.2301C44.5036 38.2301 44.556 38.2301 44.6099 38.2301C44.6328 38.2906 44.6557 38.3511 44.6793 38.4135C44.7655 38.6385 44.7655 38.6385 44.9271 38.8645C44.9271 38.9691 44.9271 39.0738 44.9271 39.1817C44.9794 39.1817 45.0317 39.1817 45.0857 39.1817C45.1211 39.2535 45.1566 39.3254 45.1931 39.3994C45.5166 40.0525 45.5166 40.0525 45.8638 40.6932C46.063 41.0472 46.1958 41.305 46.1958 41.7192C46.2481 41.7192 46.3005 41.7192 46.3544 41.7192C46.5204 41.9889 46.5272 42.1991 46.513 42.5121C46.5653 42.5121 46.6177 42.5121 46.6716 42.5121C46.7027 42.5972 46.7337 42.6822 46.7658 42.7698C46.8718 43.0544 46.9883 43.3332 47.1077 43.6124C47.2604 43.9748 47.3828 44.3352 47.4897 44.7132C47.5395 44.8766 47.5982 45.0277 47.6678 45.1834C47.834 45.5665 47.9403 45.8995 47.9403 46.3184C47.9927 46.3184 48.045 46.3184 48.0989 46.3184C48.1112 46.4361 48.1112 46.4361 48.1237 46.5563C48.1551 46.785 48.2139 46.9776 48.3021 47.1906C48.4252 47.4965 48.4366 47.7353 48.4161 48.0629C48.4685 48.0629 48.5208 48.0629 48.5747 48.0629C48.587 48.1807 48.587 48.1807 48.5995 48.3008C48.6302 48.5235 48.6854 48.7087 48.773 48.9153C48.9092 49.2527 48.9334 49.5796 48.9545 49.9406C48.9601 50.1265 48.9601 50.1265 49.0505 50.2832C49.0627 50.392 49.0723 50.5011 49.0802 50.6103C49.1059 50.8757 49.1453 51.0328 49.2537 51.2843C49.454 51.7609 49.3855 52.3133 49.3677 52.8207C49.42 52.8207 49.4724 52.8207 49.5263 52.8207C49.5377 52.9107 49.5492 53.0006 49.561 53.0933C49.5748 53.3606 49.5748 53.3606 49.6849 53.4551C49.7107 53.7423 49.7256 54.0296 49.7419 54.3174C49.7365 54.5545 49.7365 54.5545 49.8435 54.6445C49.855 54.7731 49.8615 54.9021 49.8658 55.0311C49.8687 55.1092 49.8717 55.1873 49.8748 55.2678C49.8803 55.4338 49.8859 55.5998 49.8915 55.7659C49.8945 55.8439 49.8974 55.922 49.9005 56.0025C49.9041 56.1108 49.9041 56.1108 49.9077 56.2212C49.9046 56.3878 49.9046 56.3878 50.0021 56.4684C50.01 56.626 50.0124 56.7839 50.0126 56.9417C50.0127 57.0377 50.0128 57.1336 50.0129 57.2325C50.0126 57.3336 50.0123 57.4347 50.012 57.5389C50.0123 57.64 50.0126 57.7411 50.0129 57.8452C50.0128 57.9412 50.0127 58.0372 50.0126 58.1361C50.0125 58.2692 50.0125 58.2692 50.0123 58.4051C50.0021 58.6094 50.0021 58.6094 49.9228 58.6887C49.9101 58.8752 49.9008 59.0619 49.893 59.2487C49.8683 59.7168 49.7967 60.0844 49.6056 60.5125C49.5794 60.6057 49.5532 60.699 49.5263 60.795C49.4421 61.0845 49.3393 61.3517 49.2091 61.6227C49.1734 61.697 49.1377 61.7713 49.101 61.8479C48.8397 62.3622 48.5479 62.8192 48.1931 63.273C48.155 63.322 48.117 63.3709 48.0777 63.4213C47.9832 63.5388 47.8829 63.6518 47.7818 63.7637C47.7294 63.7637 47.6771 63.7637 47.6232 63.7637C47.6232 63.816 47.6232 63.8684 47.6232 63.9223C47.5708 63.9223 47.5185 63.9223 47.4646 63.9223C47.4466 63.966 47.4286 64.0098 47.41 64.0548C47.2753 64.2939 47.1039 64.4625 46.9095 64.6558C46.8392 64.7265 46.7688 64.7972 46.6964 64.8701C46.513 65.0324 46.513 65.0324 46.3544 65.0324C46.3544 65.0848 46.3544 65.1371 46.3544 65.191C46.1865 65.3453 46.1865 65.3453 45.9678 65.5181C45.8961 65.5756 45.8243 65.633 45.7504 65.6922C45.5614 65.8254 45.5614 65.8254 45.4028 65.8254C45.4028 65.8777 45.4028 65.9301 45.4028 65.984C45.1936 66.1254 45.0086 66.2211 44.7685 66.3012C44.7685 66.3535 44.7685 66.4059 44.7685 66.4598C44.6021 66.5701 44.6021 66.5701 44.372 66.6977C44.292 66.7447 44.2119 66.7917 44.1295 66.8402C42.3182 67.8871 42.3182 67.8871 41.9138 67.8871C41.9138 67.9395 41.9138 67.9918 41.9138 68.0457C41.8287 68.0686 41.7437 68.0915 41.6561 68.1151C41.3731 68.1907 41.3731 68.1907 41.1803 68.2935C41.0415 68.3629 41.0415 68.3629 40.8036 68.3629C40.804 68.4466 40.8045 68.5302 40.8049 68.6164C40.8063 68.9257 40.8072 69.235 40.808 69.5443C40.8084 69.6784 40.8089 69.8125 40.8096 69.9465C40.8106 70.1388 40.811 70.3311 40.8114 70.5234C40.8118 70.5837 40.8122 70.644 40.8126 70.7062C40.8126 70.8502 40.8085 70.9943 40.8036 71.1383C40.7775 71.1645 40.7513 71.1906 40.7243 71.2176C40.7163 71.4166 40.7133 71.6133 40.7138 71.8123C40.7137 71.8719 40.7137 71.9314 40.7136 71.9928C40.7135 72.1189 40.7137 72.245 40.714 72.3711C40.7144 72.5648 40.714 72.7585 40.7135 72.9522C40.7135 73.0745 40.7136 73.1967 40.7138 73.319C40.7136 73.3773 40.7135 73.4356 40.7133 73.4957C40.6902 73.7672 40.6902 73.7672 40.8036 73.993C40.8129 74.1093 40.8169 74.2261 40.8187 74.3428C40.82 74.4172 40.8213 74.4916 40.8227 74.5682C40.8243 74.6895 40.8243 74.6895 40.8259 74.8132C40.8274 74.8956 40.8289 74.9781 40.8304 75.063C40.8366 75.4173 40.842 75.7716 40.8474 76.126C40.8515 76.3839 40.8561 76.6418 40.8606 76.8997C40.8622 77.021 40.8622 77.021 40.8639 77.1448C40.8652 77.2191 40.8665 77.2935 40.8679 77.3701C40.8694 77.4688 40.8694 77.4688 40.8709 77.5694C40.8666 77.7208 40.8666 77.7208 40.9622 77.7992C40.974 78.0269 40.9809 78.2529 40.9845 78.4807C40.986 78.549 40.9874 78.6174 40.989 78.6878C40.9952 78.9815 41.0006 79.2752 41.006 79.5689C41.0101 79.7827 41.0147 79.9965 41.0192 80.2104C41.0208 80.3108 41.0208 80.3108 41.0225 80.4133C40.9998 80.7169 40.9998 80.7169 41.1208 80.9711C41.1288 81.1816 41.1319 81.39 41.1314 81.6005C41.1314 81.6636 41.1315 81.7267 41.1316 81.7916C41.1316 81.9252 41.1315 82.0588 41.1312 82.1924C41.1307 82.3976 41.1312 82.6028 41.1317 82.8079C41.1316 82.9374 41.1315 83.0669 41.1314 83.1964C41.1315 83.2582 41.1317 83.3199 41.1318 83.3836C41.1299 83.8167 41.1299 83.8167 41.0415 83.9051C41.029 84.0693 41.0216 84.2339 41.0164 84.3985C41.0115 84.5484 41.0115 84.5484 41.0064 84.7013C41.0032 84.8076 41.0001 84.9139 40.9969 85.0202C40.9935 85.1268 40.99 85.2334 40.9865 85.34C40.9781 85.6018 40.97 85.8636 40.9622 86.1254C41.0414 86.1245 41.1207 86.1236 41.2023 86.1226C41.3558 86.1215 41.3558 86.1215 41.5123 86.1204C41.6145 86.1195 41.7166 86.1186 41.8218 86.1177C42.0724 86.1254 42.0724 86.1254 42.1517 86.2047C42.2967 86.2212 42.4422 86.2338 42.5878 86.2443C43.0151 86.2752 43.0151 86.2752 43.1032 86.3633C43.2101 86.3816 43.3176 86.3959 43.4254 86.4079C43.5284 86.4193 43.6315 86.4308 43.7376 86.4426C43.7376 86.4949 43.7376 86.5473 43.7376 86.6012C43.8505 86.5914 43.8505 86.5914 43.9656 86.5814C44.3726 86.578 44.7208 86.7539 45.0857 86.9184C45.0857 86.9707 45.0857 87.023 45.0857 87.077C45.3473 87.1293 45.609 87.1816 45.8786 87.2355C45.8786 87.2879 45.8786 87.3402 45.8786 87.3941C46.1942 87.4611 46.5106 87.5089 46.8302 87.5527C46.8302 87.6051 46.8302 87.6574 46.8302 87.7113C46.9349 87.7113 47.0395 87.7113 47.1474 87.7113C47.1474 87.7637 47.1474 87.816 47.1474 87.8699C47.2283 87.8797 47.2283 87.8797 47.3109 87.8898C47.6759 87.9829 47.9892 88.1566 48.2575 88.425C48.3071 88.8611 48.3557 89.3805 48.1826 89.7932C47.9896 90.0354 47.7612 90.1728 47.4646 90.2488C47.3599 90.2488 47.2552 90.2488 47.1474 90.2488C47.1474 90.3012 47.1474 90.3535 47.1474 90.4074C47.095 90.4074 47.0427 90.4074 46.9888 90.4074C46.9888 90.4598 46.9888 90.5121 46.9888 90.566C46.9365 90.566 46.8841 90.566 46.8302 90.566C46.8302 90.6184 46.8302 90.6707 46.8302 90.7246C46.7779 90.7246 46.7255 90.7246 46.6716 90.7246C46.6716 90.777 46.6716 90.8293 46.6716 90.8832C46.0355 91.1744 45.4952 91.3723 44.7917 91.4188C44.6128 91.4187 44.6128 91.4187 44.5306 91.5176C44.3431 91.5256 44.158 91.5287 43.9706 91.5281C43.9145 91.5282 43.8585 91.5283 43.8008 91.5284C43.6821 91.5284 43.5635 91.5283 43.4448 91.5279C43.2626 91.5275 43.0804 91.5279 42.8982 91.5284C42.7832 91.5284 42.6681 91.5283 42.5531 91.5281C42.4709 91.5284 42.4709 91.5284 42.3869 91.5286C42.0022 91.5267 42.0022 91.5267 41.9138 91.4383C41.7688 91.4218 41.6233 91.4091 41.4777 91.3986C41.0503 91.3678 41.0503 91.3678 40.9622 91.2797C40.8808 91.271 40.7993 91.2623 40.7154 91.2534C40.3796 91.1957 40.1283 91.0749 39.8372 90.908C39.7336 90.8506 39.6299 90.7933 39.5262 90.7361C39.4748 90.7075 39.4235 90.679 39.3706 90.6495C39.0084 90.4516 38.6365 90.2723 38.2661 90.0902C38.2661 90.0379 38.2661 89.9856 38.2661 89.9316C38.2171 89.9088 38.168 89.8859 38.1175 89.8623C37.9489 89.7731 37.9489 89.7731 37.7904 89.6145C37.7749 89.4255 37.7749 89.4255 37.7804 89.2081C37.7819 89.1359 37.7833 89.0637 37.7848 88.9894C37.7875 88.9063 37.7875 88.9063 37.7904 88.8215C37.738 88.8215 37.6857 88.8215 37.6318 88.8215C37.6318 88.4551 37.6318 88.0888 37.6318 87.7113C37.6841 87.7113 37.7364 87.7113 37.7904 87.7113C37.8018 87.6623 37.8133 87.6132 37.825 87.5627C37.8696 87.3941 37.8696 87.3941 37.9489 87.2355C38.0013 87.2355 38.0536 87.2355 38.1075 87.2355C38.1075 87.1832 38.1075 87.1309 38.1075 87.077C38.186 87.0246 38.2645 86.9723 38.3454 86.9184C38.3696 86.7213 38.3787 86.5444 38.377 86.3472C38.3773 86.2905 38.3775 86.2337 38.3777 86.1753C38.3779 86.055 38.3774 85.9348 38.3764 85.8145C38.3752 85.6316 38.3764 85.4488 38.378 85.2658C38.3778 85.1488 38.3775 85.0319 38.377 84.9149C38.3777 84.8335 38.3777 84.8335 38.3785 84.7504C38.3732 84.3831 38.2873 84.1429 38.1075 83.8258C37.9034 83.221 37.9164 82.6052 37.9043 81.9722C37.8997 81.7568 37.8946 81.5415 37.8892 81.3261C37.8873 81.2313 37.8854 81.1365 37.8834 81.0388C37.8848 80.8168 37.8848 80.8168 37.7904 80.6539C37.7814 80.5374 37.7771 80.4204 37.7753 80.3036C37.774 80.2311 37.7727 80.1586 37.7713 80.0839C37.7702 80.0054 37.7692 79.9269 37.7681 79.8461C37.7666 79.7657 37.7651 79.6853 37.7636 79.6026C37.7574 79.2577 37.752 78.9128 37.7466 78.568C37.7425 78.3167 37.7379 78.0654 37.7334 77.8141C37.7323 77.7356 37.7312 77.6572 37.7301 77.5763C37.7288 77.5038 37.7274 77.4313 37.7261 77.3566C37.7246 77.2606 37.7246 77.2606 37.7231 77.1627C37.7205 77.0002 37.7205 77.0002 37.6318 76.8477C37.6243 76.6105 37.6218 76.3753 37.6228 76.1381C37.6227 76.0646 37.6227 75.9911 37.6227 75.9154C37.6228 75.6717 37.6234 75.428 37.624 75.1843C37.6242 75.0156 37.6243 74.847 37.6244 74.6783C37.6247 74.2337 37.6254 73.7892 37.6263 73.3447C37.6271 72.8913 37.6275 72.4379 37.6279 71.9845C37.6287 71.0945 37.6301 70.2045 37.6318 69.3145C37.5855 69.3397 37.5391 69.365 37.4914 69.391C37.2537 69.5013 37.0179 69.5182 36.7595 69.5524C36.7333 69.5785 36.7072 69.6047 36.6802 69.6317C36.393 69.6575 36.1057 69.6724 35.8178 69.6886C35.5807 69.6833 35.5807 69.6833 35.4907 69.7902C35.2901 69.796 35.0916 69.7976 34.8911 69.7952C34.8065 69.7947 34.8065 69.7947 34.7202 69.7941C34.5806 69.7932 34.4409 69.7918 34.3013 69.7902C34.3013 69.8426 34.3013 69.8949 34.3013 69.9488C32.705 69.9488 31.1088 69.9488 29.4642 69.9488C29.4642 69.8965 29.4642 69.8442 29.4642 69.7902C29.4117 69.7907 29.3593 69.7911 29.3053 69.7915C29.0692 69.7931 28.833 69.7942 28.5969 69.7952C28.5143 69.7959 28.4318 69.7965 28.3467 69.7972C28.2683 69.7975 28.1898 69.7977 28.109 69.798C28.0363 69.7984 27.9637 69.7988 27.8888 69.7992C27.7197 69.7902 27.7197 69.7902 27.6404 69.7109C27.4401 69.6922 27.2414 69.6775 27.0407 69.6663C26.9561 69.6612 26.9561 69.6612 26.8698 69.656C26.7302 69.6475 26.5906 69.6395 26.4509 69.6317C26.4509 69.5793 26.4509 69.527 26.4509 69.4731C26.316 69.4755 26.316 69.4755 26.1783 69.478C25.8958 69.4731 25.8958 69.4731 25.8165 69.3938C25.7249 69.3807 25.6334 69.3676 25.539 69.3541C25.2614 69.3145 25.2614 69.3145 25.1821 69.2352C24.9975 69.206 24.8125 69.1795 24.6271 69.1559C24.6271 69.2082 24.6271 69.2605 24.6271 69.3145C24.6794 69.3145 24.7317 69.3145 24.7857 69.3145C24.7857 69.9425 24.7857 70.5705 24.7857 71.2176C24.838 71.2176 24.8903 71.2176 24.9443 71.2176C24.9461 72.2605 24.9475 73.3033 24.9484 74.3462C24.9488 74.8304 24.9493 75.3146 24.9502 75.7988C24.9511 76.2656 24.9516 76.7325 24.9518 77.1993C24.9519 77.3779 24.9522 77.5564 24.9526 77.735C24.9532 77.9841 24.9533 78.2332 24.9533 78.4824C24.9535 78.557 24.9538 78.6316 24.9541 78.7084C24.9533 79.2175 24.9533 79.2175 24.865 79.3059C24.8555 79.4805 24.8517 79.6555 24.8499 79.8304C24.8493 79.8852 24.8486 79.94 24.8479 79.9965C24.8466 80.1158 24.8454 80.2352 24.8443 80.3545C24.8427 80.5431 24.8405 80.7316 24.8382 80.9202C24.8335 81.3204 24.8294 81.7207 24.8253 82.1209C24.8206 82.5845 24.8157 83.0481 24.8101 83.5117C24.808 83.698 24.8063 83.8843 24.8047 84.0706C24.8034 84.1842 24.8021 84.2978 24.8007 84.4114C24.7997 84.511 24.7987 84.6106 24.7977 84.7132C24.7857 84.9359 24.7857 84.9359 24.7064 85.0152C24.6879 85.1486 24.6736 85.2826 24.6618 85.4167C24.6518 85.526 24.6518 85.526 24.6416 85.6375C24.6368 85.6939 24.632 85.7502 24.6271 85.8082C24.6806 85.816 24.7342 85.8238 24.7894 85.8318C24.8601 85.8436 24.9309 85.8555 25.0037 85.8677C25.1086 85.8842 25.1086 85.8842 25.2156 85.9011C25.4741 85.9842 25.5796 86.0622 25.7372 86.284C25.7682 86.5578 25.7682 86.5578 25.7571 86.8589C25.7542 86.9591 25.7513 87.0592 25.7484 87.1625C25.7447 87.2389 25.741 87.3154 25.7372 87.3941C25.6849 87.3941 25.6326 87.3941 25.5786 87.3941C25.5851 87.4621 25.5915 87.5301 25.5981 87.6001C25.6379 88.3195 25.6379 88.3195 25.4801 88.6003C25.3369 88.7462 25.1908 88.8627 25.0236 88.9801C24.9737 89.0185 24.9238 89.057 24.8724 89.0966C24.0495 89.6915 23.1372 90.1204 22.137 90.2907C21.9373 90.3068 21.9373 90.3068 21.8517 90.4074C21.6667 90.4339 21.4816 90.4603 21.2966 90.4867C21.2704 90.5129 21.2443 90.5391 21.2173 90.566C20.9921 90.5917 20.7668 90.6067 20.5408 90.623C20.3497 90.6242 20.3497 90.6242 20.2657 90.7246C20.0552 90.7326 19.8469 90.7357 19.6363 90.7352C19.5733 90.7352 19.5102 90.7353 19.4452 90.7354C19.3116 90.7354 19.1781 90.7353 19.0445 90.735C18.8393 90.7345 18.6341 90.735 18.4289 90.7355C18.2994 90.7354 18.17 90.7353 18.0405 90.7352C17.9478 90.7354 17.9478 90.7354 17.8533 90.7356C17.4202 90.7337 17.4202 90.7337 17.3318 90.6453C17.2249 90.627 17.1174 90.6127 17.0096 90.6007C16.9066 90.5893 16.8035 90.5778 16.6974 90.566C16.6974 90.5137 16.6974 90.4614 16.6974 90.4074C16.488 90.4074 16.2787 90.4074 16.063 90.4074C16.063 90.3551 16.063 90.3028 16.063 90.2488C16.0156 90.2374 15.9682 90.2259 15.9193 90.2141C15.7806 90.1785 15.6438 90.1355 15.5079 90.0902C15.5079 90.0379 15.5079 89.9856 15.5079 89.9316C15.4556 89.9316 15.4033 89.9316 15.3493 89.9316C15.3232 89.827 15.297 89.7223 15.27 89.6145C15.2177 89.6145 15.1654 89.6145 15.1114 89.6145C14.8313 89.1943 14.8952 88.6738 14.9529 88.1871C15.1152 87.8008 15.3155 87.603 15.6963 87.4338C15.765 87.4207 15.8336 87.4076 15.9044 87.3941C15.9044 87.3418 15.9044 87.2895 15.9044 87.2355C16.1915 87.1312 16.3878 87.077 16.6974 87.077C16.6974 87.0246 16.6974 86.9723 16.6974 86.9184C16.8282 86.9184 16.9591 86.9184 17.0939 86.9184C17.0939 86.866 17.0939 86.8137 17.0939 86.7598C17.1838 86.7483 17.2738 86.7369 17.3665 86.7251C17.6337 86.7113 17.6337 86.7113 17.7282 86.6012C17.9133 86.5747 18.0983 86.5483 18.2833 86.5219C18.3095 86.4957 18.3357 86.4696 18.3626 86.4426C18.5476 86.4162 18.7327 86.3897 18.9177 86.3633C18.9439 86.3371 18.97 86.311 18.997 86.284C19.2222 86.2583 19.4475 86.2433 19.6735 86.227C19.8646 86.2258 19.8646 86.2258 19.9486 86.1254C20.0955 86.1197 20.2426 86.1188 20.3896 86.1204C20.4699 86.1212 20.5501 86.1219 20.6328 86.1226C20.6948 86.1235 20.7569 86.1245 20.8208 86.1254C20.8208 86.0731 20.8208 86.0207 20.8208 85.9668C20.9834 85.9487 21.1461 85.9307 21.3087 85.9126C21.4561 85.9019 21.4561 85.9019 21.5345 85.8082C21.5439 85.651 21.5478 85.4934 21.5495 85.3359C21.5508 85.2348 21.5522 85.1337 21.5535 85.0295C21.5543 84.948 21.5543 84.948 21.5551 84.8648C21.5568 84.6952 21.5589 84.5256 21.5612 84.356C21.566 83.9959 21.5701 83.6358 21.5741 83.2757C21.5788 82.8588 21.5838 82.4419 21.5894 82.025C21.5915 81.8576 21.5931 81.6903 21.5947 81.5229C21.5961 81.4216 21.5974 81.3202 21.5988 81.2158C21.5998 81.1263 21.6008 81.0367 21.6018 80.9444C21.6138 80.7332 21.6138 80.7332 21.6931 80.5746C21.7006 80.4494 21.7031 80.3238 21.7032 80.1984C21.7035 80.0793 21.7035 80.0793 21.7038 79.9578C21.7037 79.8704 21.7035 79.783 21.7033 79.6929C21.7035 79.6011 21.7036 79.5093 21.7038 79.4147C21.7041 79.11 21.7039 78.8052 21.7036 78.5005C21.7037 78.2896 21.7037 78.0786 21.7038 77.8676C21.704 77.425 21.7038 76.9824 21.7034 76.5397C21.703 76.0276 21.7031 75.5154 21.7036 75.0033C21.7039 74.564 21.704 74.1247 21.7038 73.6854C21.7036 73.4229 21.7037 73.1603 21.7039 72.8978C21.7041 72.6052 21.7038 72.3126 21.7033 72.02C21.7036 71.8889 21.7036 71.8889 21.7038 71.7551C21.7036 71.6757 21.7034 71.5963 21.7032 71.5145C21.7031 71.4453 21.7031 71.3761 21.7031 71.3047C21.7037 71.1337 21.7037 71.1337 21.6138 70.9797C21.5886 70.6941 21.5732 70.4085 21.5568 70.1223C21.5508 69.8779 21.5508 69.8779 21.4552 69.7109C21.4485 69.5729 21.4467 69.4347 21.4475 69.2965C21.4477 69.2147 21.448 69.1329 21.4482 69.0487C21.4489 68.963 21.4496 68.8774 21.4502 68.7891C21.4506 68.7029 21.451 68.6166 21.4513 68.5277C21.4523 68.3142 21.4536 68.1006 21.4552 67.8871C21.3937 67.8888 21.3322 67.8905 21.2689 67.8922C21.0138 67.886 20.8871 67.8163 20.6672 67.6889C20.5549 67.6248 20.5549 67.6248 20.4404 67.5594C20.3566 67.5105 20.2728 67.4617 20.1864 67.4113C20.0853 67.3536 19.9841 67.296 19.8829 67.2385C19.6136 67.0854 19.3448 66.9314 19.0763 66.777C19.0763 66.7246 19.0763 66.6723 19.0763 66.6184C19.0272 66.6069 18.9782 66.5955 18.9276 66.5837C18.7591 66.5391 18.7591 66.5391 18.6005 66.4598C18.6005 66.4074 18.6005 66.3551 18.6005 66.3012C18.5324 66.2875 18.5324 66.2875 18.463 66.2736C18.2663 66.217 18.1197 66.1368 17.9463 66.0286C17.8903 65.9944 17.8343 65.9601 17.7766 65.9248C17.7345 65.892 17.6923 65.8592 17.6489 65.8254C17.6489 65.7731 17.6489 65.7207 17.6489 65.6668C17.5966 65.6668 17.5443 65.6668 17.4904 65.6668C17.4904 65.6145 17.4904 65.5621 17.4904 65.5082C17.4462 65.4891 17.402 65.47 17.3565 65.4503C17.1338 65.328 16.9649 65.1783 16.7767 65.0077C16.7096 64.9474 16.6426 64.8872 16.5735 64.8252C16.3841 64.6398 16.2184 64.4541 16.063 64.2395C16.063 64.1871 16.063 64.1348 16.063 64.0809C16.0154 64.0603 15.9677 64.0398 15.9187 64.0186C15.3269 63.6888 14.9019 62.7719 14.7143 62.1511C14.6736 61.9844 14.635 61.8172 14.5994 61.6493C14.5745 61.4683 14.5745 61.4683 14.4771 61.3848C14.4518 61.2216 14.4365 61.0584 14.4201 60.8941C14.4121 60.7491 14.4121 60.7491 14.3185 60.6711C14.3105 60.5019 14.3081 60.3325 14.3079 60.1631C14.3078 60.06 14.3077 59.9568 14.3076 59.8506C14.3078 59.7966 14.308 59.7426 14.3081 59.687C14.3086 59.522 14.3081 59.357 14.3076 59.192C14.3078 59.0373 14.3078 59.0373 14.3079 58.8795C14.308 58.7841 14.3081 58.6886 14.3082 58.5903C14.3185 58.3715 14.3185 58.3715 14.3978 58.2922C14.4144 58.1074 14.427 57.9223 14.4374 57.7371C14.4683 57.1909 14.4683 57.1909 14.5564 57.1027C14.5695 57.0112 14.5825 56.9196 14.596 56.8252C14.6357 56.5477 14.6357 56.5477 14.715 56.4684C14.7313 56.3631 14.744 56.2572 14.7546 56.1512C14.7854 55.8428 14.7854 55.8428 14.8736 55.7547C14.9127 55.5699 14.9486 55.3854 14.9826 55.1996C15.0482 54.8528 15.1183 54.5157 15.2403 54.1836C15.3576 53.8629 15.3899 53.5544 15.4119 53.2147C15.4286 53.0586 15.4286 53.0586 15.5079 52.9793C15.5177 52.9008 15.5276 52.8223 15.5377 52.7414C15.5671 52.5141 15.6198 52.313 15.6963 52.0971C15.8008 51.7997 15.8759 51.503 15.9441 51.1951C16.0235 50.8379 16.1198 50.499 16.2414 50.1544C16.3147 49.9222 16.367 49.6882 16.4198 49.4506C16.499 49.0942 16.5948 48.756 16.7166 48.4123C16.8212 48.08 16.8899 47.7391 16.9632 47.3988C17.0146 47.1906 17.0146 47.1906 17.0939 47.1113C17.1086 46.9911 17.1086 46.9911 17.1236 46.8685C17.1674 46.5925 17.2428 46.372 17.346 46.1146C17.4598 45.7777 17.5186 45.4279 17.5895 45.08C17.6505 44.8049 17.7327 44.5484 17.8274 44.2836C17.9014 44.0525 17.9532 43.8195 18.0058 43.5826C18.085 43.2262 18.1807 42.888 18.3025 42.5443C18.4072 42.2121 18.4758 41.8712 18.5491 41.5308C18.6005 41.3227 18.6005 41.3227 18.6798 41.2434C18.6896 41.1649 18.6994 41.0864 18.7095 41.0055C18.739 40.7782 18.7916 40.5771 18.8681 40.3612C19.0078 39.9654 19.0952 39.5618 19.1835 39.1519C19.2349 38.9438 19.2349 38.9438 19.3142 38.8645C19.3273 38.7729 19.3403 38.6813 19.3538 38.5869C19.3935 38.3094 19.3935 38.3094 19.4728 38.2301C19.4891 38.1248 19.5018 38.0189 19.5124 37.9129C19.5433 37.6045 19.5433 37.6045 19.6314 37.5164C19.6445 37.4248 19.6575 37.3332 19.671 37.2389C19.7107 36.9613 19.7107 36.9613 19.79 36.882C19.8027 36.7501 19.812 36.6179 19.8197 36.4856C19.8492 36.1173 19.9241 35.8109 20.052 35.4662C20.1377 35.2017 20.1569 34.9375 20.1864 34.6617C20.2126 34.6356 20.2388 34.6094 20.2657 34.5824C20.269 34.3974 20.2691 34.2124 20.2657 34.0274C19.991 33.9096 19.991 33.9096 19.7107 33.7895C19.7107 33.7371 19.7107 33.6848 19.7107 33.6309C19.6322 33.6309 19.5537 33.6309 19.4728 33.6309C19.4728 33.5785 19.4728 33.5262 19.4728 33.4723C19.4269 33.4639 19.381 33.4555 19.3337 33.4469C19.1297 33.3851 19.0096 33.2974 18.8434 33.165C18.6112 32.9847 18.3794 32.8268 18.1247 32.6793C17.9629 32.5786 17.8036 32.4736 17.6489 32.3621C17.6489 32.3098 17.6489 32.2575 17.6489 32.2035C17.4919 32.1512 17.3349 32.0989 17.1732 32.0449C17.1732 31.9926 17.1732 31.9403 17.1732 31.8863C17.0947 31.8863 17.0162 31.8863 16.9353 31.8863C16.9353 31.834 16.9353 31.7817 16.9353 31.7277C16.8862 31.7163 16.8371 31.7049 16.7866 31.6931C16.6181 31.6485 16.6181 31.6485 16.4595 31.5692C16.4595 31.5168 16.4595 31.4645 16.4595 31.4106C16.381 31.4106 16.3025 31.4106 16.2216 31.4106C16.2216 31.3582 16.2216 31.3059 16.2216 31.252C16.1657 31.2323 16.1098 31.2127 16.0522 31.1925C15.7959 31.0806 15.5901 30.9407 15.3642 30.7762C15.2868 30.7206 15.2094 30.665 15.1297 30.6077C15.0714 30.5586 15.013 30.5096 14.9529 30.459C14.9529 30.4067 14.9529 30.3543 14.9529 30.3004C14.9038 30.289 14.8547 30.2775 14.8042 30.2657C14.6357 30.2211 14.6357 30.2211 14.4771 30.1418C14.4771 30.0895 14.4771 30.0371 14.4771 29.9832C14.428 29.9718 14.3789 29.9603 14.3284 29.9485C14.1599 29.9039 14.1599 29.9039 14.0013 29.8246C14.0013 29.7723 14.0013 29.72 14.0013 29.666C13.9587 29.6603 13.916 29.6546 13.8721 29.6487C13.6114 29.5628 13.4237 29.4002 13.2133 29.2299C12.7604 28.8707 12.2934 28.5431 11.8116 28.2238C11.7492 28.1764 11.6867 28.129 11.6224 28.0801C11.6224 28.0278 11.6224 27.9754 11.6224 27.9215C11.5701 27.9215 11.5177 27.9215 11.4638 27.9215C11.4638 27.8692 11.4638 27.8168 11.4638 27.7629C11.4079 27.7433 11.352 27.7237 11.2944 27.7034C11.0381 27.5915 10.8323 27.4517 10.6064 27.2871C10.529 27.2315 10.4516 27.1759 10.3719 27.1186C10.3135 27.0696 10.2552 27.0205 10.195 26.9699C10.195 26.9176 10.195 26.8653 10.195 26.8113C10.1427 26.8113 10.0904 26.8113 10.0364 26.8113C10.0364 26.759 10.0364 26.7067 10.0364 26.6527C9.95794 26.6527 9.87944 26.6527 9.79856 26.6527C9.79856 26.6004 9.79856 26.5481 9.79856 26.4942C9.73805 26.4713 9.67753 26.4484 9.61518 26.4248C9.40207 26.3356 9.40207 26.3356 9.16418 26.177C9.16418 26.1246 9.16418 26.0723 9.16418 26.0184C9.07096 25.9889 9.07096 25.9889 8.97585 25.9589C8.73309 25.8433 8.72115 25.7741 8.60911 25.5426C8.50355 25.5155 8.39779 25.4891 8.29192 25.4633C8.13952 25.3744 8.13952 25.3744 7.99455 25.27C7.92157 25.2186 7.92157 25.2186 7.84711 25.1662C7.81072 25.1334 7.77433 25.1006 7.73684 25.0668C7.73684 25.0145 7.73684 24.9621 7.73684 24.9082C7.69064 24.8991 7.64443 24.89 7.59683 24.8806C7.40655 24.8251 7.28258 24.7511 7.12229 24.6356C7.04931 24.5843 7.04931 24.5843 6.97485 24.5319C6.93846 24.4991 6.90207 24.4662 6.86458 24.4324C6.86458 24.3801 6.86458 24.3278 6.86458 24.2738C6.81224 24.2738 6.7599 24.2738 6.70598 24.2738C6.70598 24.2215 6.70598 24.1692 6.70598 24.1152C6.65692 24.1038 6.60785 24.0924 6.5573 24.0806C6.38879 24.036 6.38879 24.036 6.2302 23.9567C6.2302 23.9043 6.2302 23.852 6.2302 23.7981C6.18481 23.789 6.13943 23.7799 6.09267 23.7705C5.89599 23.7139 5.74937 23.6337 5.576 23.5255C5.49198 23.4741 5.49198 23.4741 5.40626 23.4217C5.36414 23.3889 5.32203 23.3561 5.27864 23.3223C5.27864 23.2699 5.27864 23.2176 5.27864 23.1637C5.04928 23.0982 4.89108 23.0844 4.64426 23.0844C4.42305 23.3159 4.27017 23.493 4.16848 23.7981C4.11615 23.7981 4.06381 23.7981 4.00989 23.7981C3.99844 23.8471 3.98699 23.8962 3.9752 23.9467C3.93059 24.1152 3.93059 24.1152 3.85129 24.2738C3.79896 24.2738 3.74662 24.2738 3.6927 24.2738C3.6927 24.3262 3.6927 24.3785 3.6927 24.4324C3.64036 24.4324 3.58803 24.4324 3.53411 24.4324C3.53411 24.4848 3.53411 24.5371 3.53411 24.591C3.09409 24.8145 2.76165 24.9505 2.26536 24.9082C2.1134 24.5131 2.06278 24.1369 2.02747 23.7188C1.9738 23.7574 1.92014 23.796 1.86485 23.8359C1.57953 23.9832 1.38071 23.9884 1.06104 23.9864C0.963418 23.987 0.865799 23.9876 0.765221 23.9883C0.644246 23.9726 0.644246 23.9726 0.520826 23.9567C0.328825 23.6687 0.345561 23.5298 0.35232 23.1885C0.354467 23.0482 0.354467 23.0482 0.356657 22.905C0.359416 22.7976 0.359416 22.7976 0.362232 22.6879C0.414569 22.6879 0.466905 22.6879 0.520826 22.6879C0.520826 22.5832 0.520826 22.4786 0.520826 22.3707C0.573162 22.3707 0.625499 22.3707 0.67942 22.3707C0.67942 22.3184 0.67942 22.266 0.67942 22.2121C0.731756 22.2121 0.784092 22.2121 0.838014 22.2121C0.838014 22.1598 0.838014 22.1075 0.838014 22.0535C0.968853 22.0012 1.09969 21.9489 1.2345 21.8949C1.2345 21.8426 1.2345 21.7903 1.2345 21.7363C1.313 21.7363 1.39151 21.7363 1.47239 21.7363C1.34513 21.4885 1.34513 21.4885 1.15954 21.4579C1.1025 21.4533 1.04546 21.4487 0.986695 21.4439C0.885294 21.4358 0.783894 21.4276 0.67942 21.4192C0.67942 21.3668 0.67942 21.3145 0.67942 21.2606C0.618907 21.2524 0.558393 21.2442 0.496046 21.2358C0.256575 21.1745 0.189569 21.1401 0.0450449 20.9434C-0.0263218 20.4926 -0.0345762 20.0604 0.183814 19.6548C0.571388 19.4461 0.958609 19.4444 1.39309 19.4367C1.31459 19.4106 1.23608 19.3844 1.1552 19.3574C1.1552 19.3051 1.1552 19.2528 1.1552 19.1988C1.10286 19.1988 1.05053 19.1988 0.996607 19.1988C0.996607 19.1465 0.996607 19.0942 0.996607 19.0403C0.944271 19.0403 0.891935 19.0403 0.838014 19.0403C0.648609 18.7561 0.65809 18.6189 0.659596 18.282C0.658983 18.1444 0.658983 18.1444 0.658357 18.0041C0.67942 17.7715 0.67942 17.7715 0.838014 17.6129C0.987044 17.5949 0.987044 17.5949 1.16573 17.5974C1.26156 17.5982 1.26156 17.5982 1.35933 17.599C1.45945 17.601 1.45945 17.601 1.5616 17.603C1.62896 17.6037 1.69632 17.6044 1.76572 17.6052C1.93228 17.607 2.09882 17.6099 2.26536 17.6129C2.26536 17.6652 2.26536 17.7176 2.26536 17.7715C2.37003 17.7715 2.4747 17.7715 2.58254 17.7715C2.58254 17.8238 2.58254 17.8762 2.58254 17.9301C2.66105 17.9301 2.73955 17.9301 2.82044 17.9301C2.82044 17.9824 2.82044 18.0348 2.82044 18.0887C2.89894 18.0887 2.97744 18.0887 3.05833 18.0887C3.05833 17.6177 3.05833 17.1466 3.05833 16.6613C3.11066 16.6613 3.163 16.6613 3.21692 16.6613C3.24309 16.5567 3.26926 16.452 3.29622 16.3442C3.68874 16.3442 4.08125 16.3442 4.48567 16.3442C4.48567 16.3965 4.48567 16.4488 4.48567 16.5028C4.53801 16.5028 4.59034 16.5028 4.64426 16.5028C4.81818 16.7636 4.82849 16.8808 4.84746 17.1867C4.84272 17.4642 4.84272 17.4642 4.96145 17.6922C4.96718 17.8391 4.9681 17.9863 4.96641 18.1333C4.96569 18.2135 4.96498 18.2938 4.96424 18.3764C4.96332 18.4385 4.9624 18.5005 4.96145 18.5645C5.01379 18.5645 5.06612 18.5645 5.12004 18.5645C5.12004 18.7738 5.12004 18.9832 5.12004 19.1988C5.16911 19.2103 5.21817 19.2217 5.26873 19.2335C5.43723 19.2781 5.43723 19.2781 5.59583 19.3574C5.59583 19.4098 5.59583 19.4621 5.59583 19.516C5.64816 19.516 5.7005 19.516 5.75442 19.516C5.75442 19.5684 5.75442 19.6207 5.75442 19.6746C5.80676 19.6746 5.85909 19.6746 5.91301 19.6746C5.91301 19.727 5.91301 19.7793 5.91301 19.8332C5.96535 19.8332 6.01769 19.8332 6.07161 19.8332C6.07161 19.8856 6.07161 19.9379 6.07161 19.9918C6.13212 20.0147 6.19263 20.0376 6.25498 20.0612C6.46809 20.1504 6.46809 20.1504 6.70598 20.309C6.70598 20.3613 6.70598 20.4137 6.70598 20.4676C6.86299 20.5199 7.02 20.5723 7.18176 20.6262C7.18176 20.6785 7.18176 20.7309 7.18176 20.7848C7.24228 20.8077 7.30279 20.8306 7.36514 20.8542C7.57825 20.9434 7.57825 20.9434 7.81614 21.102C7.81614 21.1543 7.81614 21.2066 7.81614 21.2606C7.97315 21.3129 8.13015 21.3652 8.29192 21.4192C8.29192 21.4715 8.29192 21.5238 8.29192 21.5777C8.44893 21.6301 8.60593 21.6824 8.7677 21.7363C8.7677 21.7887 8.7677 21.841 8.7677 21.8949C8.82821 21.9178 8.88873 21.9407 8.95107 21.9643C9.16418 22.0535 9.16418 22.0535 9.40207 22.2121C9.40207 22.2645 9.40207 22.3168 9.40207 22.3707C9.53291 22.4231 9.66375 22.4754 9.79856 22.5293C9.79856 22.5816 9.79856 22.634 9.79856 22.6879C9.88197 22.7173 9.88197 22.7173 9.96706 22.7474C10.2264 22.8601 10.4441 22.995 10.6708 23.1637C10.6708 23.216 10.6708 23.2684 10.6708 23.3223C10.7131 23.341 10.7555 23.3597 10.7991 23.379C11.0422 23.5101 11.2555 23.6746 11.4737 23.8427C11.7727 24.0786 11.7727 24.0786 12.0982 24.2738C12.0982 24.3262 12.0982 24.3785 12.0982 24.4324C12.1405 24.4511 12.1828 24.4698 12.2264 24.4891C12.4696 24.6203 12.6828 24.7848 12.901 24.9528C13.2 25.1887 13.2 25.1887 13.5255 25.384C13.5255 25.4363 13.5255 25.4887 13.5255 25.5426C13.5828 25.5622 13.64 25.5818 13.699 25.6021C13.9439 25.7109 14.121 25.8379 14.3185 26.0184C14.3185 26.0707 14.3185 26.123 14.3185 26.177C14.397 26.177 14.4755 26.177 14.5564 26.177C14.5564 26.2293 14.5564 26.2816 14.5564 26.3356C14.6349 26.3356 14.7134 26.3356 14.7943 26.3356C14.7943 26.3879 14.7943 26.4402 14.7943 26.4942C14.8499 26.5138 14.9055 26.5334 14.9628 26.5536C15.2221 26.6664 15.4398 26.8012 15.6665 26.9699C15.6665 27.0223 15.6665 27.0746 15.6665 27.1285C15.7974 27.1809 15.9282 27.2332 16.063 27.2871C16.063 27.3395 16.063 27.3918 16.063 27.4457C16.22 27.4981 16.377 27.5504 16.5388 27.6043C16.5388 27.6566 16.5388 27.709 16.5388 27.7629C16.6958 27.8152 16.8528 27.8676 17.0146 27.9215C17.0146 27.9738 17.0146 28.0262 17.0146 28.0801C17.1716 28.1324 17.3286 28.1848 17.4904 28.2387C17.4904 28.291 17.4904 28.3434 17.4904 28.3973C17.5509 28.4202 17.6114 28.4431 17.6737 28.4667C17.8868 28.5559 17.8868 28.5559 18.1247 28.7145C18.1247 28.7668 18.1247 28.8191 18.1247 28.8731C18.2556 28.9254 18.3864 28.9777 18.5212 29.0317C18.5212 29.084 18.5212 29.1363 18.5212 29.1902C18.5997 29.1902 18.6782 29.1902 18.7591 29.1902C18.7591 29.2426 18.7591 29.2949 18.7591 29.3488C18.8082 29.3603 18.8572 29.3717 18.9078 29.3835C19.0763 29.4281 19.0763 29.4281 19.2349 29.5074C19.2349 29.5598 19.2349 29.6121 19.2349 29.666C19.2803 29.6751 19.3257 29.6842 19.3724 29.6936C19.5691 29.7502 19.7157 29.8304 19.8891 29.9386C19.9451 29.9729 20.0011 30.0071 20.0588 30.0424C20.1009 30.0752 20.1431 30.108 20.1864 30.1418C20.1864 30.1941 20.1864 30.2465 20.1864 30.3004C20.2355 30.3119 20.2846 30.3233 20.3351 30.3351C20.5036 30.3797 20.5036 30.3797 20.6622 30.459C20.6622 30.5113 20.6622 30.5637 20.6622 30.6176C20.8808 30.5781 20.8808 30.5781 21.0587 30.459C21.0841 30.3472 21.1068 30.2347 21.1281 30.122C21.1908 29.8241 21.2769 29.6001 21.4552 29.3488C21.4029 29.3488 21.3505 29.3488 21.2966 29.3488C21.2966 29.2965 21.2966 29.2442 21.2966 29.1902C21.2475 29.1788 21.1985 29.1674 21.1479 29.1556C20.9794 29.111 20.9794 29.111 20.8208 29.0317C20.8208 28.9793 20.8208 28.927 20.8208 28.8731C20.7423 28.8731 20.6638 28.8731 20.5829 28.8731C20.5829 28.8207 20.5829 28.7684 20.5829 28.7145C20.5355 28.6916 20.4881 28.6687 20.4392 28.6451C20.2657 28.5559 20.2657 28.5559 20.0279 28.3973C20.0279 28.3449 20.0279 28.2926 20.0279 28.2387C19.9755 28.2387 19.9232 28.2387 19.8693 28.2387C19.8693 28.1863 19.8693 28.134 19.8693 28.0801C19.7809 28.0531 19.7809 28.0531 19.6908 28.0256C19.427 27.8997 19.3291 27.7581 19.1556 27.525C19.0836 27.4547 19.0117 27.3844 18.9375 27.3119C18.7591 27.1285 18.7591 27.1285 18.7591 26.9699C18.7068 26.9699 18.6544 26.9699 18.6005 26.9699C18.6005 26.9176 18.6005 26.8653 18.6005 26.8113C18.5482 26.8113 18.4958 26.8113 18.4419 26.8113C18.4419 26.759 18.4419 26.7067 18.4419 26.6527C18.3896 26.6527 18.3372 26.6527 18.2833 26.6527C18.1638 26.5196 18.1638 26.5196 18.0355 26.3455C17.9928 26.2884 17.9501 26.2314 17.906 26.1726C17.8075 26.0184 17.8075 26.0184 17.8075 25.8598C17.7552 25.8598 17.7029 25.8598 17.6489 25.8598C17.5659 25.73 17.4873 25.5972 17.4111 25.4633C17.2656 25.2584 17.1177 25.0556 16.969 24.8531C16.856 24.6703 16.856 24.6703 16.856 24.4324C16.8036 24.4324 16.7513 24.4324 16.6974 24.4324C16.6516 24.3392 16.6058 24.246 16.5586 24.1499C16.4511 23.9341 16.339 23.7234 16.2166 23.5156C16.0936 23.2973 15.9871 23.0833 15.8923 22.8518C15.8401 22.7245 15.7858 22.5981 15.7306 22.472C15.5255 21.9973 15.3602 21.5315 15.2366 21.0292C15.2059 20.8663 15.2059 20.8663 15.1114 20.7848C15.085 20.5998 15.0586 20.4147 15.0322 20.2297C15.006 20.2035 14.9798 20.1774 14.9529 20.1504C14.9275 19.9873 14.9123 19.824 14.8959 19.6598C14.8878 19.5147 14.8878 19.5147 14.7943 19.4367C14.7678 19.2517 14.7414 19.0667 14.715 18.8817C14.6888 18.8555 14.6626 18.8293 14.6357 18.8024C14.6242 18.6738 14.6177 18.5448 14.6134 18.4158C14.6104 18.3377 14.6074 18.2596 14.6044 18.1791C14.5988 18.0131 14.5932 17.8471 14.5877 17.6811C14.5847 17.603 14.5817 17.5249 14.5787 17.4444C14.5763 17.3722 14.5739 17.3001 14.5714 17.2257C14.5746 17.0591 14.5746 17.0591 14.4771 16.9785C14.4692 16.8557 14.4667 16.7324 14.4665 16.6093C14.4664 16.5348 14.4663 16.4603 14.4662 16.3835C14.4665 16.3051 14.4668 16.2267 14.4672 16.1459C14.4669 16.0675 14.4665 15.9891 14.4662 15.9083C14.4664 15.7966 14.4664 15.7966 14.4665 15.6825C14.4666 15.6137 14.4667 15.5448 14.4668 15.4739C14.4771 15.3133 14.4771 15.3133 14.5564 15.234C14.5669 15.1129 14.5725 14.9913 14.5759 14.8697C14.5785 14.7945 14.5811 14.7193 14.5838 14.6418C14.5886 14.484 14.5931 14.3262 14.5974 14.1684C14.6416 12.9285 14.6416 12.9285 14.8736 12.6965C14.9126 12.4968 14.9484 12.2974 14.9826 12.0968C15.0538 11.6991 15.1267 11.3228 15.2855 10.9495C15.3675 10.7491 15.4286 10.5441 15.4931 10.3374C15.6348 9.90559 15.8224 9.51349 16.0317 9.1108C16.1716 8.83178 16.2782 8.55057 16.3802 8.25588C16.4325 8.25588 16.4849 8.25588 16.5388 8.25588C16.5465 8.21315 16.5541 8.17042 16.562 8.1264C16.6849 7.71489 16.9513 7.35201 17.1732 6.98713C17.2067 6.93172 17.2402 6.87632 17.2748 6.81924C17.3565 6.68976 17.3565 6.68976 17.4904 6.51135C17.5427 6.51135 17.595 6.51135 17.6489 6.51135C17.7275 6.35434 17.7275 6.35434 17.8075 6.19416C17.8599 6.19416 17.9122 6.19416 17.9661 6.19416C17.9776 6.14509 17.989 6.09603 18.0008 6.04548C18.0454 5.87697 18.0454 5.87697 18.1247 5.71838C18.1771 5.71838 18.2294 5.71838 18.2833 5.71838C18.3029 5.66931 18.3226 5.62025 18.3428 5.56969C18.4419 5.40119 18.4419 5.40119 18.6005 5.32685C18.8182 5.21122 18.8316 5.07009 18.9177 4.84611C18.9962 4.81994 19.0747 4.79378 19.1556 4.76681C19.1556 4.71448 19.1556 4.66214 19.1556 4.60822C19.2079 4.60822 19.2603 4.60822 19.3142 4.60822C19.3665 4.50355 19.4189 4.39888 19.4728 4.29103C19.5251 4.29103 19.5774 4.29103 19.6314 4.29103C19.6314 4.2387 19.6314 4.18636 19.6314 4.13244C19.6837 4.13244 19.736 4.13244 19.79 4.13244C19.79 4.0801 19.79 4.02777 19.79 3.97385C19.9058 3.85428 19.9058 3.85428 20.0576 3.72604C20.1073 3.68332 20.1569 3.64059 20.2081 3.59657C20.345 3.49806 20.345 3.49806 20.5036 3.49806C20.5036 3.44573 20.5036 3.39339 20.5036 3.33947C20.5821 3.33947 20.6606 3.33947 20.7415 3.33947C20.7415 3.28713 20.7415 3.2348 20.7415 3.18088C20.82 3.18088 20.8985 3.18088 20.9794 3.18088C20.9794 3.12854 20.9794 3.07621 20.9794 3.02228C21.2173 2.86369 21.2173 2.86369 21.4552 2.86369C21.4552 2.81135 21.4552 2.75902 21.4552 2.7051C21.5075 2.7051 21.5599 2.7051 21.6138 2.7051C21.6138 2.65276 21.6138 2.60042 21.6138 2.5465C21.6842 2.50771 21.6842 2.50771 21.756 2.46813C21.8186 2.43348 21.8813 2.39883 21.9458 2.36313C22.0111 2.32715 22.0763 2.29117 22.1435 2.25409C22.2817 2.17589 22.417 2.09234 22.5505 2.00629C22.7239 1.91213 22.7239 1.91213 23.0411 1.91213C23.0411 1.85979 23.0411 1.80746 23.0411 1.75353C23.1914 1.67734 23.3417 1.6014 23.4921 1.52555C23.5759 1.48324 23.6596 1.44092 23.7458 1.39732C24.1092 1.22131 24.3777 1.09584 24.7857 1.11916C24.7857 1.06682 24.7857 1.01449 24.7857 0.960565C24.8691 0.937668 24.9525 0.914771 25.0384 0.89118C25.3276 0.813275 25.3276 0.813275 25.539 0.712762C25.7955 0.622966 26.0226 0.632802 26.2923 0.643377C26.2923 0.591041 26.2923 0.538705 26.2923 0.484783C26.3486 0.479979 26.405 0.475175 26.463 0.470225C26.5359 0.463581 26.6087 0.456937 26.6838 0.450091C26.7565 0.443651 26.8292 0.437211 26.9041 0.430577C27.0822 0.424482 27.0822 0.424482 27.1646 0.32619C27.3496 0.299757 27.5346 0.273325 27.7197 0.246893C27.7458 0.220725 27.772 0.194557 27.7989 0.167596C27.9286 0.160697 28.0585 0.15911 28.1883 0.159852C28.306 0.160235 28.306 0.160235 28.426 0.160627C28.5086 0.161291 28.5911 0.161955 28.6762 0.16264C28.8004 0.163177 28.8004 0.163177 28.9272 0.163724C29.1326 0.164662 29.3381 0.165969 29.5435 0.167596C29.5435 0.11526 29.5435 0.0629241 29.5435 0.00900221ZM30.0193 3.10158C29.8898 3.11404 29.7599 3.12147 29.6299 3.12667C29.5122 3.13165 29.5122 3.13165 29.3922 3.13674C29.2684 3.14141 29.2684 3.14141 29.142 3.14618C29.0592 3.14961 28.9763 3.15303 28.891 3.15656C28.6856 3.165 28.4802 3.17309 28.2747 3.18088C28.2747 3.23321 28.2747 3.28555 28.2747 3.33947C28.1962 3.33456 28.1177 3.32966 28.0368 3.3246C27.7395 3.324 27.5135 3.40298 27.2408 3.51479C27.0093 3.60795 26.7706 3.66963 26.5302 3.73595C26.2656 3.81443 26.0014 3.89411 25.7372 3.97384C25.7372 4.02618 25.7372 4.07852 25.7372 4.13244C25.6814 4.14174 25.6256 4.15104 25.5681 4.16063C24.9533 4.29884 24.3688 4.59729 23.8341 4.92541C23.8341 4.97774 23.8341 5.03008 23.8341 5.084C23.6771 5.13634 23.5201 5.18867 23.3583 5.24259C23.3583 5.29493 23.3583 5.34727 23.3583 5.40119C23.2013 5.45352 23.0443 5.50586 22.8825 5.55978C22.8825 5.61212 22.8825 5.66445 22.8825 5.71838C22.7517 5.77071 22.6209 5.82305 22.4861 5.87697C22.4861 5.92931 22.4861 5.98164 22.4861 6.03556C22.4386 6.05846 22.3912 6.08136 22.3423 6.10495C22.1535 6.19792 22.1535 6.19792 21.931 6.35275C21.931 6.40509 21.931 6.45742 21.931 6.51134C21.8872 6.52933 21.8435 6.54733 21.7984 6.56586C21.5593 6.70065 21.3908 6.87199 21.1975 7.06642C21.1268 7.13675 21.056 7.20708 20.9831 7.27953C20.8033 7.44188 20.8033 7.44188 20.8208 7.6215C20.7685 7.6215 20.7162 7.6215 20.6622 7.6215C20.6622 7.67384 20.6622 7.72617 20.6622 7.78009C20.6099 7.78009 20.5576 7.78009 20.5036 7.78009C20.3964 7.89877 20.3964 7.89877 20.2911 8.05546C20.2297 8.14294 20.2297 8.14294 20.1669 8.23218C20.1243 8.29397 20.0817 8.35576 20.0378 8.41943C19.9958 8.47907 19.9537 8.53871 19.9105 8.60017C19.455 9.17835 19.455 9.17835 19.2349 9.84181C19.1826 9.84181 19.1302 9.84181 19.0763 9.84181C19.042 9.93831 19.0076 10.0348 18.9722 10.1342C18.9006 10.326 18.8308 10.4887 18.7244 10.6645C18.4836 11.0691 18.3183 11.5193 18.1941 11.9729C18.1247 12.2207 18.1247 12.2207 18.0433 12.374C17.9603 12.5503 17.9431 12.6767 17.9314 12.87C17.9083 13.1288 17.8614 13.3415 17.7679 13.5836C17.6164 13.9976 17.606 14.4126 17.5864 14.8499C17.5697 15.0754 17.5697 15.0754 17.4904 15.1547C17.4834 15.3017 17.4819 15.4489 17.4826 15.5961C17.4829 15.6853 17.4831 15.7745 17.4834 15.8664C17.4841 15.9602 17.4847 16.0541 17.4854 16.1509C17.4858 16.2451 17.4861 16.3393 17.4865 16.4363C17.4874 16.6699 17.4887 16.9035 17.4904 17.1371C17.5427 17.1371 17.595 17.1371 17.649 17.1371C17.6462 17.209 17.6434 17.2808 17.6406 17.3549C17.629 17.8776 17.6349 18.3163 17.8286 18.8042C17.9158 19.0389 17.9397 19.2679 17.9661 19.516C18.0185 19.516 18.0708 19.516 18.1247 19.516C18.1215 19.5962 18.1182 19.6763 18.1148 19.7589C18.1252 20.0854 18.1828 20.3184 18.2833 20.6262C18.3357 20.6262 18.388 20.6262 18.4419 20.6262C18.4419 20.7309 18.4419 20.8355 18.4419 20.9434C18.4943 20.9434 18.5466 20.9434 18.6005 20.9434C18.6005 21.1004 18.6005 21.2574 18.6005 21.4192C18.6528 21.4192 18.7052 21.4192 18.7591 21.4192C18.7591 21.5238 18.7591 21.6285 18.7591 21.7363C18.8114 21.7363 18.8638 21.7363 18.9177 21.7363C18.9406 21.8083 18.9635 21.8803 18.9871 21.9544C19.0577 22.1584 19.133 22.3401 19.2349 22.5293C19.2872 22.5293 19.3396 22.5293 19.3935 22.5293C19.4017 22.5718 19.4098 22.6144 19.4183 22.6582C19.4871 22.8961 19.5962 23.1033 19.7107 23.3223C19.763 23.3223 19.8153 23.3223 19.8693 23.3223C19.9216 23.4793 19.9739 23.6363 20.0279 23.7981C20.0802 23.7981 20.1325 23.7981 20.1865 23.7981C20.2028 23.852 20.2192 23.906 20.236 23.9616C20.3791 24.2672 20.5751 24.5179 20.8208 24.7496C20.8732 24.7496 20.9255 24.7496 20.9794 24.7496C21.0579 24.9066 21.0579 24.9066 21.138 25.0668C21.1903 25.0668 21.2427 25.0668 21.2966 25.0668C21.3162 25.1126 21.3359 25.1584 21.3561 25.2056C21.4697 25.4101 21.5967 25.5474 21.7724 25.7012C21.8247 25.7012 21.8771 25.7012 21.931 25.7012C21.931 25.7535 21.931 25.8059 21.931 25.8598C22.1033 26.0219 22.1033 26.0219 22.3176 26.1869C22.3893 26.2443 22.4611 26.3018 22.535 26.361C22.707 26.5094 22.707 26.5094 22.8825 26.4942C22.8825 26.5465 22.8825 26.5988 22.8825 26.6527C22.961 26.6527 23.0396 26.6527 23.1204 26.6527C23.1204 26.7051 23.1204 26.7574 23.1204 26.8113C23.1989 26.8113 23.2774 26.8113 23.3583 26.8113C23.3583 26.8637 23.3583 26.916 23.3583 26.9699C23.4368 26.9699 23.5153 26.9699 23.5962 26.9699C23.5962 27.0223 23.5962 27.0746 23.5962 27.1285C23.6747 27.1285 23.7532 27.1285 23.8341 27.1285C23.8341 27.1809 23.8341 27.2332 23.8341 27.2871C23.8867 27.313 23.9394 27.3388 23.9936 27.3655C24.5961 27.6637 24.5961 27.6637 24.8501 27.8273C25.0543 27.9382 25.191 27.9411 25.42 27.9215C25.42 27.9738 25.42 28.0262 25.42 28.0801C25.5247 28.0801 25.6294 28.0801 25.7372 28.0801C25.7372 28.1324 25.7372 28.1848 25.7372 28.2387C25.8223 28.2616 25.9073 28.2845 25.9949 28.3081C26.2923 28.3973 26.2923 28.3973 26.4339 28.4744C26.6756 28.5865 26.9185 28.6281 27.1794 28.6798C27.7114 28.7855 27.7114 28.7855 27.799 28.8731C27.9307 28.8895 28.063 28.9022 28.1954 28.9127C28.5831 28.9435 28.5831 28.9435 28.6712 29.0317C28.7828 29.0394 28.8947 29.0418 29.0065 29.0419C29.0777 29.0422 29.1489 29.0424 29.2222 29.0427C29.2996 29.0425 29.377 29.0423 29.4568 29.0422C29.5751 29.0423 29.5751 29.0423 29.6959 29.0424C29.863 29.0425 30.0302 29.0423 30.1974 29.042C30.4543 29.0416 30.7112 29.042 30.968 29.0425C31.13 29.0424 31.292 29.0423 31.454 29.0422C31.5314 29.0423 31.6088 29.0425 31.6886 29.0427C31.7598 29.0424 31.8309 29.0422 31.9043 29.0419C31.9987 29.0418 31.9987 29.0418 32.0951 29.0417C32.2412 29.0474 32.2412 29.0474 32.3189 28.9524C32.482 28.927 32.6453 28.9118 32.8095 28.8954C32.9546 28.8873 32.9546 28.8873 33.0325 28.7938C33.2172 28.7646 33.4022 28.7381 33.5876 28.7145C33.5876 28.6621 33.5876 28.6098 33.5876 28.5559C33.6694 28.5591 33.7512 28.5624 33.8354 28.5658C34.1323 28.5562 34.3439 28.5044 34.6185 28.3973C34.6185 28.3449 34.6185 28.2926 34.6185 28.2387C34.9083 28.179 35.1987 28.1276 35.4907 28.0801C35.4907 28.0278 35.4907 27.9754 35.4907 27.9215C35.5382 27.91 35.5856 27.8986 35.6345 27.8868C35.7732 27.8511 35.91 27.8082 36.0458 27.7629C36.0458 27.7106 36.0458 27.6582 36.0458 27.6043C36.1505 27.6043 36.2552 27.6043 36.363 27.6043C36.363 27.552 36.363 27.4996 36.363 27.4457C36.4104 27.4343 36.4579 27.4228 36.5067 27.411C36.6454 27.3754 36.7822 27.3324 36.9181 27.2871C36.9181 27.2348 36.9181 27.1824 36.9181 27.1285C36.9966 27.1285 37.0751 27.1285 37.156 27.1285C37.156 27.0762 37.156 27.0239 37.156 26.9699C37.2345 26.9699 37.313 26.9699 37.3939 26.9699C37.3939 26.9176 37.3939 26.8653 37.3939 26.8113C37.4724 26.8113 37.5509 26.8113 37.6318 26.8113C37.6318 26.759 37.6318 26.7067 37.6318 26.6527C37.7103 26.6527 37.7888 26.6527 37.8697 26.6527C37.8697 26.6004 37.8697 26.5481 37.8697 26.4942C37.9555 26.4647 37.9555 26.4647 38.0431 26.4347C38.288 26.3258 38.4652 26.1989 38.6626 26.0184C38.6626 25.966 38.6626 25.9137 38.6626 25.8598C38.715 25.8598 38.7673 25.8598 38.8212 25.8598C38.8212 25.8074 38.8212 25.7551 38.8212 25.7012C38.9521 25.6488 39.0829 25.5965 39.2177 25.5426C39.2177 25.4903 39.2177 25.4379 39.2177 25.384C39.27 25.384 39.3224 25.384 39.3763 25.384C39.4843 25.2537 39.5896 25.1211 39.6935 24.9875C39.8256 24.8554 39.9578 24.7232 40.09 24.591C40.2807 24.3794 40.2807 24.3794 40.3279 24.1152C40.3802 24.1152 40.4325 24.1152 40.4865 24.1152C40.4865 24.0629 40.4865 24.0106 40.4865 23.9567C40.5388 23.9567 40.5911 23.9567 40.645 23.9567C40.7717 23.784 40.7717 23.784 40.8928 23.5701C40.9569 23.4624 40.9569 23.4624 41.0223 23.3526C41.133 23.1758 41.133 23.1758 41.1208 23.0051C41.1732 23.0051 41.2255 23.0051 41.2794 23.0051C41.3318 22.8481 41.3841 22.6911 41.438 22.5293C41.4903 22.5293 41.5427 22.5293 41.5966 22.5293C41.5966 22.4246 41.5966 22.32 41.5966 22.2121C41.6489 22.2121 41.7013 22.2121 41.7552 22.2121C41.7744 22.1622 41.7936 22.1124 41.8134 22.061C41.9421 21.7323 42.0722 21.4099 42.2359 21.097C42.3781 20.8211 42.4776 20.5426 42.5702 20.2467C42.6246 20.0798 42.6889 19.9208 42.7563 19.7589C42.8708 19.4615 42.8994 19.1817 42.9124 18.8646C42.942 18.6618 42.9919 18.5062 43.0624 18.3151C43.2048 17.9027 43.2299 17.5114 43.242 17.0777C43.2448 16.9994 43.2476 16.9211 43.2505 16.8405C43.352 15.5288 43.352 15.5288 43.1032 14.2824C43.0968 14.1685 43.0922 14.0545 43.0884 13.9405C43.0493 13.4591 42.9276 13.0106 42.796 12.5478C42.7654 12.4389 42.7654 12.4389 42.7343 12.3278C42.6288 11.9673 42.5173 11.665 42.3103 11.3485C42.2517 11.1871 42.2517 11.1871 42.2062 11.0263C42.0575 10.5529 41.8259 10.1218 41.5966 9.68322C41.5443 9.68322 41.4919 9.68322 41.438 9.68322C41.4233 9.62107 41.4086 9.55892 41.3934 9.49489C41.2571 9.15115 41.0648 8.88431 40.8479 8.58669C40.7243 8.41447 40.7243 8.41447 40.645 8.25588C40.5927 8.25588 40.5404 8.25588 40.4865 8.25588C40.4717 8.2019 40.457 8.14793 40.4418 8.09233C40.3039 7.8105 40.1234 7.64011 39.8964 7.42729C39.7728 7.30431 39.7728 7.30431 39.6935 7.14572C39.6411 7.14572 39.5888 7.14572 39.5349 7.14572C39.5349 7.09338 39.5349 7.04105 39.5349 6.98713C39.4826 6.98713 39.4302 6.98713 39.3763 6.98713C39.3763 6.93479 39.3763 6.88245 39.3763 6.82853C39.324 6.82853 39.2716 6.82853 39.2177 6.82853C39.2177 6.7762 39.2177 6.72386 39.2177 6.66994C39.1654 6.66994 39.113 6.66994 39.0591 6.66994C39.0591 6.6176 39.0591 6.56527 39.0591 6.51134C39.0068 6.51134 38.9544 6.51134 38.9005 6.51134C38.9005 6.45901 38.9005 6.40667 38.9005 6.35275C38.7697 6.30041 38.6388 6.24808 38.504 6.19416C38.504 6.14182 38.504 6.08949 38.504 6.03556C38.2617 5.79568 38.2617 5.79568 37.949 5.71838C37.949 5.66604 37.949 5.6137 37.949 5.55978C37.7919 5.50745 37.6349 5.45511 37.4732 5.40119C37.4732 5.34885 37.4732 5.29652 37.4732 5.24259C37.3162 5.19026 37.1592 5.13792 36.9974 5.084C36.9974 5.03166 36.9974 4.97933 36.9974 4.92541C36.7929 4.81889 36.588 4.71331 36.3828 4.60822C36.325 4.57796 36.2671 4.54771 36.2075 4.51653C36.1513 4.48791 36.0951 4.45929 36.0372 4.4298C35.9857 4.40322 35.9342 4.37665 35.8811 4.34927C35.7065 4.27217 35.7065 4.27217 35.4114 4.29103C35.4114 4.2387 35.4114 4.18636 35.4114 4.13244C34.9316 3.89371 34.4597 3.74412 33.937 3.62599C33.7462 3.57736 33.7462 3.57736 33.6669 3.49806C33.4819 3.49482 33.2968 3.4947 33.1118 3.49806C33.1118 3.44573 33.1118 3.39339 33.1118 3.33947C33.0219 3.32802 32.9319 3.31657 32.8393 3.30478C32.5568 3.26017 32.5568 3.26017 32.4775 3.18088C32.2927 3.16425 32.1076 3.15168 31.9224 3.14123C31.3761 3.11039 31.3761 3.11039 31.288 3.02228C31.0889 3.01437 30.8924 3.01127 30.6933 3.01237C30.6376 3.01206 30.5819 3.01176 30.5245 3.01144C30.2489 2.98708 30.2489 2.98708 30.0193 3.10158ZM1.47239 19.516C1.47239 19.5684 1.47239 19.6207 1.47239 19.6746C1.55089 19.6485 1.6294 19.6223 1.71028 19.5953C1.63178 19.5692 1.55327 19.543 1.47239 19.516ZM36.9974 30.6176C36.9974 30.6699 36.9974 30.7223 36.9974 30.7762C36.7357 30.8285 36.474 30.8809 36.2044 30.9348C36.2044 30.9871 36.2044 31.0395 36.2044 31.0934C36.1494 31.1032 36.0944 31.113 36.0378 31.1231C35.7862 31.1773 35.5472 31.2522 35.3024 31.3313C34.9389 31.4454 34.5994 31.5263 34.222 31.5692C34.1958 31.5953 34.1697 31.6215 34.1427 31.6485C33.9577 31.6749 33.7726 31.7013 33.5876 31.7277C33.5615 31.7539 33.5353 31.7801 33.5083 31.807C33.2211 31.8329 32.9339 31.8478 32.646 31.864C32.4089 31.8587 32.4089 31.8587 32.3189 31.9656C32.1875 31.9754 32.0558 31.9797 31.9241 31.9819C31.8399 31.9835 31.7558 31.9851 31.6691 31.9867C31.5776 31.988 31.4861 31.9894 31.3918 31.9907C31.2986 31.9924 31.2054 31.994 31.1094 31.9957C30.8105 32.0009 30.5115 32.0056 30.2125 32.0102C30.0104 32.0137 29.8083 32.0171 29.6062 32.0206C29.1095 32.0291 28.6128 32.0372 28.1161 32.0449C28.1161 31.9926 28.1161 31.9403 28.1161 31.8863C28.0131 31.8749 27.9101 31.8634 27.8039 31.8516C27.4917 31.817 27.4917 31.817 27.4025 31.7277C27.2309 31.7111 27.059 31.6986 26.887 31.6881C26.3804 31.6573 26.3804 31.6573 26.2923 31.5692C26.1073 31.5659 25.9222 31.5658 25.7372 31.5692C25.7372 31.5168 25.7372 31.4645 25.7372 31.4106C25.3589 31.1987 24.9808 31.0934 24.5478 31.0934C24.5478 31.041 24.5478 30.9887 24.5478 30.9348C24.3562 30.9149 24.3562 30.9149 24.1513 30.9348C23.9774 31.1956 23.9338 31.3883 23.8688 31.6931C23.7621 32.1889 23.7621 32.1889 23.6755 32.3621C23.6663 32.4732 23.6614 32.5846 23.6588 32.696C23.6565 32.7621 23.6543 32.8281 23.652 32.8961C23.6479 33.0351 23.6443 33.1741 23.6414 33.3131C23.6277 33.6849 23.6162 33.9006 23.3583 34.186C23.3165 34.3514 23.3165 34.3514 23.3088 34.518C23.279 34.8203 23.279 34.8203 23.1997 34.8996C23.1849 35.0315 23.174 35.1637 23.165 35.2961C23.0767 36.3707 23.0767 36.3707 22.8825 36.5649C22.7808 36.9581 22.7203 37.3547 22.6893 37.7593C22.6606 38.0838 22.5842 38.3554 22.4724 38.66C22.3581 39.0159 22.2931 39.3829 22.2203 39.7491C22.1689 39.9746 22.1689 39.9746 22.0896 40.0539C22.0765 40.1455 22.0634 40.2371 22.0499 40.3315C22.0103 40.609 22.0103 40.609 21.931 40.6883C21.9179 40.7799 21.9048 40.8715 21.8913 40.9658C21.8517 41.2434 21.8517 41.2434 21.7724 41.3227C21.7593 41.4143 21.7462 41.5058 21.7327 41.6002C21.6931 41.8777 21.6931 41.8777 21.6138 41.957C21.6007 42.0486 21.5876 42.1402 21.5741 42.2346C21.5345 42.5121 21.5345 42.5121 21.4552 42.5914C21.4454 42.6699 21.4356 42.7484 21.4255 42.8293C21.3962 43.0554 21.3438 43.2542 21.2669 43.4686C21.1563 43.782 21.0852 44.0946 21.0191 44.4202C20.9462 44.7757 20.86 45.0971 20.7217 45.4312C20.6398 45.6701 20.5936 45.9124 20.5433 46.1598C20.482 46.4612 20.4231 46.7476 20.3054 47.032C20.1514 47.4049 20.0883 47.7972 20.008 48.1911C19.947 48.4663 19.8648 48.7228 19.7701 48.9875C19.6961 49.2186 19.6443 49.4516 19.5917 49.6885C19.5125 50.0449 19.4168 50.3831 19.295 50.7268C19.1903 51.0591 19.1217 51.3999 19.0484 51.7403C18.997 51.9484 18.997 51.9484 18.9177 52.0277C18.9079 52.1079 18.8981 52.188 18.888 52.2706C18.8443 52.5458 18.7696 52.7655 18.6662 53.022C18.5482 53.3727 18.4855 53.7366 18.414 54.0991C18.3626 54.3274 18.3626 54.3274 18.2833 54.4066C18.2702 54.4982 18.2572 54.5898 18.2437 54.6842C18.204 54.9617 18.204 54.9617 18.1247 55.041C18.112 55.1465 18.1027 55.2523 18.095 55.3582C18.0619 55.6949 17.9763 55.9831 17.8621 56.3002C17.797 56.4844 17.797 56.4844 17.7679 56.7509C17.7282 57.0234 17.7282 57.0234 17.6093 57.3059C17.4472 57.704 17.4467 58.1147 17.4278 58.5397C17.4111 58.768 17.4111 58.768 17.3318 58.8473C17.3216 59.0482 17.3167 59.246 17.3169 59.447C17.3168 59.5046 17.3168 59.5622 17.3167 59.6215C17.3207 60.021 17.3633 60.3693 17.4904 60.7504C17.5427 60.7504 17.595 60.7504 17.6489 60.7504C17.6578 60.8079 17.6667 60.8655 17.6759 60.9248C17.7306 61.1568 17.8119 61.3232 17.9314 61.5285C17.9675 61.5912 18.0036 61.6538 18.0408 61.7184C18.0685 61.7653 18.0962 61.8122 18.1247 61.8605C18.1771 61.8605 18.2294 61.8605 18.2833 61.8605C18.3013 61.9047 18.3193 61.9489 18.3378 61.9944C18.4716 62.23 18.6426 62.3875 18.8384 62.5742C18.9087 62.6478 18.9791 62.7214 19.0515 62.7972C19.212 62.9889 19.212 62.9889 19.3935 62.9707C19.3935 63.023 19.3935 63.0754 19.3935 63.1293C19.5295 63.2552 19.5295 63.2552 19.7008 63.3771C19.7863 63.4412 19.7863 63.4412 19.8736 63.5066C20.0196 63.6193 20.0196 63.6193 20.1864 63.6051C20.1864 63.6574 20.1864 63.7098 20.1864 63.7637C20.4097 63.9443 20.4097 63.9443 20.6622 63.9223C20.6622 63.9746 20.6622 64.0269 20.6622 64.0809C20.8855 64.2615 20.8855 64.2615 21.138 64.2395C21.138 64.2918 21.138 64.3441 21.138 64.398C21.7325 64.7604 21.7325 64.7604 22.4068 64.8738C22.4068 64.9262 22.4068 64.9785 22.4068 65.0324C22.784 65.2702 23.1329 65.4112 23.5621 65.5299C23.7373 65.5823 23.8962 65.6452 24.0621 65.7213C24.3138 65.8459 24.3138 65.8459 24.6271 65.8254C24.6271 65.8777 24.6271 65.9301 24.6271 65.984C24.7056 65.9922 24.7841 66.0003 24.865 66.0088C25.0937 66.0401 25.2863 66.099 25.4993 66.1872C25.8052 66.3103 26.044 66.3217 26.3716 66.3012C26.3716 66.3535 26.3716 66.4059 26.3716 66.4598C26.4746 66.4712 26.5777 66.4827 26.6838 66.4945C26.9961 66.5292 26.9961 66.5292 27.0853 66.6184C27.2568 66.635 27.4287 66.6475 27.6007 66.658C28.1073 66.6889 28.1073 66.6889 28.1954 66.777C28.3961 66.7828 28.5945 66.7843 28.7951 66.7819C28.8515 66.7816 28.9079 66.7812 28.9659 66.7808C29.1056 66.7799 29.2452 66.7785 29.3849 66.777C29.3849 66.8293 29.3849 66.8816 29.3849 66.9355C30.0046 66.9376 30.6242 66.9389 31.2439 66.9399C31.4549 66.9403 31.6659 66.9408 31.8769 66.9415C32.1794 66.9425 32.4819 66.9429 32.7844 66.9433C32.8794 66.9437 32.9744 66.9441 33.0723 66.9445C33.1596 66.9445 33.2469 66.9445 33.3369 66.9445C33.4142 66.9447 33.4915 66.9449 33.5711 66.9451C33.7442 66.9552 33.7442 66.9552 33.8255 66.8563C34.1127 66.8304 34.4 66.8155 34.6879 66.7993C34.925 66.8046 34.925 66.8046 35.015 66.6977C35.3022 66.6718 35.5894 66.6569 35.8773 66.6407C36.1144 66.646 36.1144 66.646 36.2044 66.5391C36.2846 66.5293 36.3647 66.5194 36.4473 66.5093C36.6892 66.4709 36.8555 66.4296 37.0767 66.3408C37.3691 66.2238 37.6362 66.1752 37.9489 66.1426C37.9489 66.0902 37.9489 66.0379 37.9489 65.984C38.0307 65.9889 38.1125 65.9938 38.1967 65.9989C38.5278 65.9828 38.6927 65.9022 38.9798 65.7461C39.2078 65.6916 39.2078 65.6916 39.3763 65.6668C39.3763 65.6145 39.3763 65.5621 39.3763 65.5082C39.5333 65.5082 39.6903 65.5082 39.8521 65.5082C39.8521 65.4559 39.8521 65.4035 39.8521 65.3496C39.9126 65.3382 39.9731 65.3267 40.0354 65.3149C40.255 65.2732 40.255 65.2732 40.4864 65.191C40.4864 65.1387 40.4864 65.0863 40.4864 65.0324C40.6434 65.0324 40.8005 65.0324 40.9622 65.0324C40.9622 64.9801 40.9622 64.9278 40.9622 64.8738C41.0669 64.8738 41.1716 64.8738 41.2794 64.8738C41.2794 64.8215 41.2794 64.7692 41.2794 64.7152C41.3268 64.7038 41.3743 64.6923 41.4231 64.6805C41.5618 64.6449 41.6986 64.6019 41.8345 64.5566C41.8345 64.5043 41.8345 64.452 41.8345 64.398C41.8819 64.3866 41.9293 64.3752 41.9782 64.3634C42.1169 64.3277 42.2537 64.2847 42.3896 64.2395C42.3896 64.1871 42.3896 64.1348 42.3896 64.0809C42.5466 64.0285 42.7036 63.9762 42.8653 63.9223C42.8653 63.8699 42.8653 63.8176 42.8653 63.7637C43.0224 63.7113 43.1794 63.659 43.3411 63.6051C43.3411 63.5527 43.3411 63.5004 43.3411 63.4465C43.3935 63.4465 43.4458 63.4465 43.4997 63.4465C43.4997 63.3942 43.4997 63.3418 43.4997 63.2879C43.5782 63.2879 43.6567 63.2879 43.7376 63.2879C43.8732 63.1593 44.0051 63.0267 44.1341 62.8914C44.2249 62.8252 44.2249 62.8252 44.3175 62.7576C44.3616 62.7233 44.4058 62.6889 44.4513 62.6535C44.4513 62.6012 44.4513 62.5489 44.4513 62.4949C44.5036 62.4949 44.556 62.4949 44.6099 62.4949C44.6099 62.4426 44.6099 62.3903 44.6099 62.3363C44.6622 62.3363 44.7146 62.3363 44.7685 62.3363C44.7685 62.284 44.7685 62.2317 44.7685 62.1777C44.8208 62.1777 44.8731 62.1777 44.9271 62.1777C44.9271 62.1254 44.9271 62.0731 44.9271 62.0191C45.0317 61.9668 45.1364 61.9145 45.2443 61.8605C45.2443 61.8082 45.2443 61.7559 45.2443 61.702C45.2966 61.702 45.3489 61.702 45.4029 61.702C45.4029 61.6496 45.4029 61.5973 45.4029 61.5434C45.4552 61.5434 45.5075 61.5434 45.5614 61.5434C45.5614 61.491 45.5614 61.4387 45.5614 61.3848C45.6138 61.3848 45.6661 61.3848 45.72 61.3848C46.1851 60.7989 46.6716 60.0928 46.6716 59.3231C46.7239 59.3231 46.7763 59.3231 46.8302 59.3231C46.835 59.2438 46.8398 59.1646 46.8447 59.083C46.8514 58.9807 46.858 58.8784 46.8649 58.7729C46.8713 58.6708 46.8778 58.5687 46.8844 58.4635C46.9095 58.2129 46.9095 58.2129 46.9888 58.1336C46.9967 57.9345 46.9998 57.738 46.9987 57.5389C46.999 57.4832 46.9993 57.4275 46.9996 57.3701C47.024 57.0945 47.024 57.0945 46.9095 56.8649C46.898 56.743 46.8915 56.6207 46.8872 56.4984C46.8842 56.4243 46.8813 56.3501 46.8782 56.2737C46.8755 56.1956 46.8727 56.1176 46.8698 56.0372C46.8644 55.8836 46.8586 55.7301 46.8525 55.5766C46.8501 55.5082 46.8477 55.4397 46.8452 55.3692C46.8403 55.1956 46.8403 55.1956 46.7509 55.041C46.7385 54.8677 46.729 54.6942 46.7212 54.5206C46.6954 54.1116 46.6364 53.7841 46.4888 53.4052C46.3921 53.0754 46.3877 52.7362 46.3711 52.3945C46.3775 52.1923 46.3775 52.1923 46.2751 52.107C46.2487 51.922 46.2223 51.737 46.1958 51.552C46.1697 51.5258 46.1435 51.4996 46.1165 51.4727C46.0909 51.2475 46.0758 51.0222 46.0595 50.7962C46.0583 50.605 46.0583 50.605 45.9579 50.5211C45.9326 50.358 45.9174 50.1947 45.9009 50.0305C45.8929 49.8854 45.8929 49.8854 45.7993 49.8074C45.7895 49.7273 45.7797 49.6472 45.7696 49.5646C45.7254 49.2864 45.6503 49.0585 45.5466 48.7983C45.4734 48.5934 45.4231 48.3886 45.3731 48.1769C45.1377 47.1626 45.1377 47.1626 44.6892 46.2391C44.681 46.1606 44.6728 46.0821 44.6644 46.0012C44.6083 45.5142 44.3476 45.0716 44.1254 44.6414C44.0439 44.4719 44.0006 44.2987 43.9507 44.1179C43.7684 43.521 43.5519 42.9566 43.2017 42.439C43.0815 42.2378 43.0005 42.0315 42.9149 41.8133C42.7496 41.4004 42.5415 41.0508 42.2963 40.6812C42.0278 40.2528 41.817 39.7946 41.5966 39.3402C41.506 39.1584 41.4151 38.9767 41.324 38.7951C41.2563 38.6596 41.1886 38.5242 41.1208 38.3887C41.0685 38.3887 41.0161 38.3887 40.9622 38.3887C40.9622 38.284 40.9622 38.1793 40.9622 38.0715C40.9099 38.0715 40.8576 38.0715 40.8036 38.0715C40.7856 38.0061 40.7677 37.9407 40.7491 37.8733C40.6461 37.5984 40.5203 37.3861 40.3619 37.1416C40.0383 36.6269 39.774 36.092 39.5349 35.534C39.3471 35.1749 39.1505 34.8207 38.9485 34.4694C38.7659 34.1499 38.6209 33.8445 38.4997 33.4955C38.4001 33.254 38.2739 33.0315 38.1472 32.8032C37.9231 32.3972 37.7647 32.0123 37.6318 31.5692C37.6056 31.543 37.5794 31.5168 37.5525 31.4899C37.5338 31.3168 37.5197 31.1432 37.5079 30.9695C37.5012 30.8745 37.4946 30.7795 37.4877 30.6817C37.4829 30.6082 37.4781 30.5347 37.4732 30.459C37.3079 30.459 37.1482 30.5557 36.9974 30.6176Z" fill="#000000" />
    <path d="M1.02989 0.000619888C1.09603 0.000415802 1.16216 0.000209808 1.2303 0C1.2991 0.000614166 1.36789 0.00122643 1.43877 0.00185776C1.54196 0.000938416 1.54196 0.000938416 1.64723 0C1.71337 0.000204086 1.7795 0.000408173 1.84764 0.000619888C1.908 0.000799179 1.96836 0.000976562 2.03055 0.00116158C2.19209 0.0216827 2.19209 0.0216827 2.42998 0.180277C2.42998 0.232613 2.42998 0.284948 2.42998 0.338871C2.48231 0.338871 2.53465 0.338871 2.58857 0.338871C2.69472 0.520361 2.80037 0.702105 2.90576 0.884035C2.93602 0.935656 2.96627 0.987276 2.99745 1.04046C3.22295 1.43106 3.22295 1.43106 3.22295 1.60762C3.27528 1.60762 3.32762 1.60762 3.38154 1.60762C3.43388 1.76463 3.48621 1.92163 3.54013 2.0834C3.59247 2.0834 3.64481 2.0834 3.69873 2.0834C3.75106 2.24041 3.8034 2.39742 3.85732 2.55918C3.90966 2.55918 3.96199 2.55918 4.01591 2.55918C4.01591 2.61152 4.01591 2.66385 4.01591 2.71778C4.06825 2.71778 4.12059 2.71778 4.17451 2.71778C4.17451 2.77011 4.17451 2.82245 4.17451 2.87637C4.22684 2.87637 4.27918 2.87637 4.3331 2.87637C4.50161 3.02505 4.50161 3.02505 4.65029 3.19356C4.65029 3.24589 4.65029 3.29823 4.65029 3.35215C4.70263 3.35215 4.75496 3.35215 4.80888 3.35215C4.80888 3.40449 4.80888 3.45682 4.80888 3.51074C4.8972 3.54509 4.8972 3.54509 4.9873 3.58013C5.17106 3.6553 5.34645 3.73662 5.52256 3.82793C5.52256 3.88027 5.52256 3.9326 5.52256 3.98652C5.56855 3.99521 5.61455 4.0039 5.66195 4.01285C5.75486 4.03171 5.75486 4.03171 5.84966 4.05095C5.91037 4.06291 5.97109 4.07487 6.03365 4.08719C6.23623 4.14512 6.23623 4.14512 6.46142 4.26809C6.93184 4.48382 7.57737 4.46572 8.07988 4.33747C8.20904 4.28097 8.33307 4.21316 8.45654 4.14512C8.55304 4.11077 8.64953 4.07643 8.74895 4.04104C9.12544 3.90299 9.47728 3.7182 9.83339 3.5349C10.0425 3.43145 10.0425 3.43145 10.2804 3.35215C10.2804 3.29981 10.2804 3.24748 10.2804 3.19356C10.4112 3.14122 10.542 3.08888 10.6769 3.03496C10.6769 2.98263 10.6769 2.93029 10.6769 2.87637C10.7292 2.87637 10.7815 2.87637 10.8354 2.87637C10.8354 2.82403 10.8354 2.7717 10.8354 2.71778C10.9663 2.61042 11.0985 2.50472 11.2319 2.40059C11.2581 2.34825 11.2843 2.29592 11.3112 2.24199C11.3636 2.24199 11.4159 2.24199 11.4698 2.24199C11.4698 2.18966 11.4698 2.13732 11.4698 2.0834C11.5222 2.0834 11.5745 2.0834 11.6284 2.0834C11.648 2.04088 11.6677 1.99835 11.6879 1.95454C11.8113 1.72003 11.9483 1.50475 12.1042 1.29043C12.1565 1.29043 12.2089 1.29043 12.2628 1.29043C12.2628 1.2381 12.2628 1.18576 12.2628 1.13184C12.4591 1.05334 12.4591 1.05334 12.6593 0.973246C12.6593 0.92091 12.6593 0.868572 12.6593 0.814651C13.0791 0.497463 13.0791 0.497463 13.3729 0.497463C13.3729 0.445127 13.3729 0.392792 13.3729 0.338871C13.6346 0.338871 13.8963 0.338871 14.1659 0.338871C14.1659 0.286533 14.1659 0.234198 14.1659 0.180277C14.4276 0.180277 14.6893 0.180277 14.9589 0.180277C14.977 0.342897 14.995 0.505518 15.0131 0.668139C15.0238 0.815556 15.0238 0.815556 15.1175 0.893948C15.1276 1.12612 15.1322 1.35559 15.1323 1.5878C15.1333 1.65219 15.1343 1.71659 15.1353 1.78294C15.1361 2.13056 15.1216 2.40139 14.9589 2.71778C14.9065 2.71778 14.8542 2.71778 14.8003 2.71778C14.8098 2.80165 14.8098 2.80165 14.8195 2.88721C14.7939 3.18983 14.6743 3.33415 14.493 3.57517C14.4075 3.69124 14.4075 3.69124 14.3202 3.80966C14.2693 3.86802 14.2184 3.92639 14.1659 3.98652C14.1136 3.98652 14.0612 3.98652 14.0073 3.98652C13.9866 4.03211 13.9658 4.0777 13.9444 4.12468C13.7029 4.57641 13.3843 4.92965 12.8972 5.09668C12.7906 5.25665 12.7906 5.25665 12.7386 5.41387C12.6862 5.41387 12.6339 5.41387 12.58 5.41387C12.58 5.4662 12.58 5.51854 12.58 5.57246C12.4309 5.6876 12.2762 5.79557 12.1191 5.89956C11.9907 5.98573 11.9907 5.98573 11.8598 6.07364C11.6284 6.20684 11.6284 6.20684 11.3905 6.20684C11.3905 6.25917 11.3905 6.31151 11.3905 6.36543C11.312 6.36543 11.2335 6.36543 11.1526 6.36543C11.1526 6.41777 11.1526 6.4701 11.1526 6.52402C11.048 6.52402 10.9433 6.52402 10.8354 6.52402C10.8354 6.57636 10.8354 6.6287 10.8354 6.68262C10.7308 6.68262 10.6261 6.68262 10.5183 6.68262C10.5183 6.73495 10.5183 6.78729 10.5183 6.84121C10.3613 6.84121 10.2042 6.84121 10.0425 6.84121C10.0425 6.89355 10.0425 6.94588 10.0425 6.99981C9.72414 7.14014 9.41178 7.21423 9.07109 7.2823C8.73819 7.32335 8.73819 7.32335 8.45654 7.47559C8.28736 7.48352 8.11791 7.48596 7.94854 7.48612C7.84541 7.48622 7.74227 7.48632 7.636 7.48643C7.58202 7.48626 7.52804 7.4861 7.47242 7.48592C7.30743 7.4855 7.14246 7.48592 6.97747 7.48643C6.82276 7.48627 6.82276 7.48627 6.66493 7.48612C6.56951 7.48603 6.47408 7.48594 6.37577 7.48585C6.15693 7.47559 6.15693 7.47559 6.07763 7.39629C5.89302 7.36714 5.70797 7.34059 5.52256 7.31699C5.52256 7.26466 5.52256 7.21232 5.52256 7.1584C5.33938 7.1584 5.1562 7.1584 4.96748 7.1584C4.96748 7.10606 4.96748 7.05373 4.96748 6.99981C4.91678 6.99163 4.86608 6.98345 4.81384 6.97503C4.48656 6.90155 4.174 6.79232 3.85732 6.68262C3.85732 6.63028 3.85732 6.57795 3.85732 6.52402C3.7917 6.51283 3.7917 6.51283 3.72475 6.50141C3.49065 6.42953 3.32388 6.31282 3.12383 6.17214C3.05309 6.12318 2.98235 6.07422 2.90948 6.02377C2.85591 5.97951 2.80235 5.93525 2.74717 5.88965C2.74717 5.83731 2.74717 5.78498 2.74717 5.73106C2.65639 5.70162 2.65639 5.70162 2.56379 5.67158C2.33 5.56284 2.24297 5.47452 2.11279 5.25527C2.11279 5.20294 2.11279 5.1506 2.11279 5.09668C2.06577 5.07613 2.01875 5.05559 1.9703 5.03442C1.78303 4.93115 1.67595 4.82763 1.53789 4.6655C1.49659 4.61818 1.4553 4.57085 1.41275 4.52209C1.31982 4.38301 1.31982 4.38301 1.31982 4.14512C1.26748 4.14512 1.21515 4.14512 1.16123 4.14512C1.00263 3.90723 1.00263 3.90723 1.00263 3.66934C0.950296 3.66934 0.897961 3.66934 0.84404 3.66934C0.661594 3.41965 0.518539 3.14626 0.368258 2.87637C0.33473 2.82403 0.301203 2.7717 0.266659 2.71778C0.0282593 2.29547 0.0157375 1.86906 0.00646591 1.39451C0.00433159 1.32945 0.00219917 1.2644 0 1.19737C0.00209045 0.865772 0.0250721 0.644754 0.237232 0.381926C0.505756 0.124475 0.660946 0.0017128 1.02989 0.000619888Z" fill="#000000" transform="translate(21.88 18.226)" />
    <path d="M1.59702 0.000705719C1.68983 0.00213623 1.78265 0.0035677 1.87828 0.00504208C1.98438 0.00780201 1.98438 0.00780201 2.09263 0.0106173C2.09263 0.062953 2.09263 0.11529 2.09263 0.169211C2.1973 0.169211 2.30197 0.169211 2.40981 0.169211C2.40981 0.221547 2.40981 0.273883 2.40981 0.327805C2.45561 0.345796 2.5014 0.363786 2.54858 0.382321C2.78691 0.521344 2.89429 0.649265 3.04419 0.882883C3.09063 1.11399 3.09573 1.34148 3.09871 1.57673C3.07262 1.97514 3.07262 1.97514 3.20278 2.31023C3.22589 2.6405 3.2277 2.97108 3.23055 3.30209C3.23185 3.41315 3.234 3.52421 3.23705 3.63523C3.26538 4.67446 3.26538 4.67446 3.01724 5.03079C2.66995 5.38216 2.46138 5.54734 1.96873 5.58029C1.69204 5.58113 1.41738 5.57519 1.14106 5.5614C1.14106 5.50906 1.14106 5.45672 1.14106 5.4028C1.08382 5.3979 1.02658 5.39299 0.967602 5.38793C0.669853 5.30192 0.545998 5.16236 0.348097 4.92702C0.190542 4.61116 0.166891 4.34237 0.159456 3.99157C0.156748 3.88945 0.154039 3.78733 0.151247 3.68212C0.14908 3.57505 0.146963 3.46798 0.144897 3.36091C0.140318 3.14985 0.135128 2.93882 0.129721 2.72777C0.127823 2.63437 0.125925 2.54097 0.12397 2.44474C0.134254 2.23753 0.134254 2.23753 0.0309086 2.15163C-0.020443 1.52362 -0.057621 0.990804 0.348097 0.486399C0.756657 0.108479 1.04023 -0.0104303 1.59702 0.000705719Z" fill="#000000" transform="translate(31.574 9.355)" />
    <path d="M0.998516 0.0154877C1.16204 0.011178 1.3256 0.00811672 1.48916 0.00557518C1.58024 0.00373554 1.67132 0.0018959 1.76516 0C2.02283 0.0151033 2.19484 0.0635729 2.42586 0.174082C2.42586 0.226418 2.42586 0.278753 2.42586 0.332675C2.53053 0.385011 2.6352 0.437347 2.74305 0.491269C2.74305 0.543605 2.74305 0.595941 2.74305 0.649862C2.79538 0.649862 2.84772 0.649862 2.90164 0.649862C3.10939 1.04074 3.08091 1.42879 3.0751 1.85914C3.07505 1.93233 3.075 2.00552 3.07495 2.08092C3.07137 2.62115 3.07137 2.62115 2.98094 2.71158C2.97317 2.83032 2.97065 2.94943 2.97102 3.06842C2.97082 3.13302 2.97062 3.19762 2.97041 3.26418C2.96313 3.42488 2.96313 3.42488 3.06023 3.50455C3.13787 4.10994 3.08343 4.53038 2.71951 5.02389C2.45754 5.30689 2.29861 5.41942 1.90888 5.45042C1.769 5.45399 1.62909 5.45622 1.48916 5.45724C1.38482 5.4626 1.38482 5.4626 1.27838 5.46808C0.973562 5.47127 0.763435 5.46588 0.509918 5.28617C0.202349 4.98355 0.0386257 4.78068 0.0316601 4.34394C0.030386 4.27139 0.0291119 4.19883 0.0277996 4.12407C0.0242672 3.7909 0.0210171 3.45775 0.0191917 3.12456C0.0178833 2.94921 0.0157223 2.77386 0.0126877 2.59852C0.00832748 2.34522 0.00660706 2.09203 0.00544739 1.8387C0.00364876 1.76095 0.00185204 1.6832 0 1.60309C0.00157547 1.08681 0.0977879 0.726462 0.443438 0.332675C0.681328 0.174082 0.681328 0.174082 0.998516 0.174082C0.998516 0.121745 0.998516 0.0694094 0.998516 0.0154877Z" fill="#000000" transform="translate(24.422 9.509)" />
  </g>
</svg>