<?xml version="1.0" encoding="utf-8"?>
<svg width="46.334" height="94.937" viewBox="0 0 46.334 94.937" fill="none" xmlns="http://www.w3.org/2000/svg">
  <g>
    <path d="M27.2956 0.365541C27.5793 0.406327 27.5793 0.406327 27.8687 0.447936C31.802 1.11423 35.5112 3.00429 38.4368 5.70817C38.8009 6.04382 39.1517 6.36459 39.5544 6.65292C39.6435 6.72386 39.7327 6.7948 39.8245 6.86789C39.8245 6.97256 39.8245 7.07723 39.8245 7.18507C39.9292 7.18507 40.0339 7.18507 40.1417 7.18507C40.6056 7.67858 41.0018 8.23153 41.4104 8.77101C41.4744 8.85422 41.5384 8.93742 41.6044 9.02315C43.2936 11.2313 44.3695 13.5872 45.2167 16.2249C45.2789 16.4108 45.341 16.5966 45.405 16.788C46.9964 21.8607 46.5275 28.4039 44.1165 33.1449C43.9593 33.4398 43.7982 33.7317 43.6326 34.022C43.4697 34.3089 43.3144 34.5991 43.1599 34.8907C42.5626 35.9991 41.8949 36.9663 41.0747 37.9194C40.7568 38.2781 40.7568 38.2781 40.4589 38.7452C40.3542 38.7452 40.2495 38.7452 40.1417 38.7452C40.0996 38.8394 40.0574 38.9336 40.014 39.0307C39.7003 39.6082 39.2139 39.9991 38.7342 40.4402C38.635 40.5343 38.5359 40.6285 38.4337 40.7255C38.337 40.8151 38.2403 40.9048 38.1407 40.9971C38.053 41.0786 37.9653 41.1601 37.875 41.2441C37.575 41.4626 37.3323 41.5341 36.9698 41.5999C36.9698 41.7046 36.9698 41.8093 36.9698 41.9171C36.7649 42.1349 36.5536 42.347 36.3355 42.5515C36.4874 42.5748 36.6392 42.5981 36.7957 42.6221C39.4549 43.0585 42.5299 43.8089 44.2651 46.0405C45.5751 48.1159 45.9912 50.452 45.4595 52.8828C45.263 53.4728 44.9576 53.9549 44.5823 54.446C44.483 54.5766 44.3836 54.7073 44.2812 54.8419C43.6401 55.6135 42.9093 56.3074 42.0448 56.8249C41.9402 56.8249 41.8355 56.8249 41.7276 56.8249C41.7276 56.9296 41.7276 57.0343 41.7276 57.1421C41.2822 57.3943 40.8359 57.645 40.3895 57.8954C40.2653 57.9658 40.1411 58.0361 40.0132 58.1085C37.7728 59.3624 37.7728 59.3624 37.1284 59.3624C37.2268 59.769 37.3261 60.1753 37.4258 60.5816C37.4534 60.696 37.481 60.8104 37.5094 60.9282C37.6604 61.5404 37.8413 62.1083 38.08 62.6929C38.1606 62.999 38.2364 63.3064 38.308 63.6147C38.4423 64.1688 38.5817 64.7011 38.7937 65.2304C39.0506 65.8814 39.2166 66.5436 39.376 67.2246C39.4677 67.604 39.5693 67.981 39.6783 68.3558C40.0655 69.7305 40.2038 71.0369 40.2111 72.4662C40.2127 72.6279 40.2142 72.7896 40.2159 72.9561C40.2053 73.8771 40.1617 74.5916 39.6659 75.3804C38.7964 75.9889 38.0705 76.1343 37.025 76.2155C36.8108 76.2353 36.8108 76.2353 36.5924 76.2554C36.1402 76.2966 35.6877 76.3342 35.2352 76.3716C34.927 76.399 34.6188 76.4267 34.3106 76.4546C33.5584 76.5222 32.806 76.5866 32.0534 76.6491C32.1406 77.8398 32.228 79.0304 32.3157 80.221C32.3455 80.6255 32.3752 81.0301 32.4048 81.4346C32.4475 82.0181 32.4905 82.6015 32.5335 83.1849C32.5466 83.3641 32.5597 83.5432 32.5731 83.7278C32.6411 84.6461 32.7181 85.5622 32.8156 86.4779C32.8716 87.0626 32.8559 87.6398 32.8464 88.2265C32.9466 88.2324 33.0467 88.2383 33.1499 88.2444C35.027 88.3824 36.7571 88.6978 38.3972 89.6538C38.3972 89.7585 38.3972 89.8632 38.3972 89.971C38.5018 89.971 38.6065 89.971 38.7144 89.971C39.1026 90.6544 39.1438 91.261 39.0315 92.0327C38.6004 92.7053 38.0381 92.803 37.287 92.9843C37.1519 93.0358 37.0168 93.0873 36.8775 93.1404C36.1562 93.3547 35.4476 93.4153 34.7 93.4799C34.5574 93.4936 34.4148 93.5073 34.2678 93.5214C32.4673 93.6854 30.3018 93.8644 28.723 92.8257C28.5659 92.5902 28.5659 92.5902 28.4058 92.3499C28.0408 92.18 27.6708 92.0201 27.2956 91.8741C27.2956 91.1938 27.2956 90.5134 27.2956 89.8124C28.3463 89.178 28.3463 89.178 28.8815 89.178C28.9404 89.0309 28.9404 89.0309 29.0005 88.8807C29.2419 88.4703 29.3839 88.3762 29.8331 88.2265C30.1503 88.2217 30.4675 88.2213 30.7847 88.2265C30.7648 88.0781 30.7449 87.9298 30.7243 87.777C30.5188 86.2112 30.3639 84.6451 30.2403 83.0708C30.2098 82.6864 30.1776 82.3021 30.1453 81.9177C30.0112 80.2638 29.9654 78.6254 29.9917 76.9663C29.8633 76.9914 29.8633 76.9914 29.7324 77.017C27.832 77.3822 25.9293 77.6736 24.0048 77.8782C23.74 77.9085 23.74 77.9085 23.4698 77.9395C21.4201 78.1443 19.3617 78.0947 17.3042 78.0765C17.3121 78.1835 17.3201 78.2906 17.3283 78.4008C17.4114 79.5226 17.4936 80.6445 17.5752 81.7664C17.6058 82.1842 17.6365 82.6019 17.6675 83.0197C17.7123 83.6228 17.7561 84.2259 17.7998 84.8291C17.8137 85.0135 17.8276 85.198 17.8419 85.388C17.9248 86.5478 17.9552 87.6982 17.9386 88.8609C18.2035 88.851 18.2035 88.851 18.4738 88.841C19.0487 88.8609 19.0487 88.8609 19.3659 89.178C19.3921 89.3122 19.4183 89.4463 19.4452 89.5844C19.4714 89.712 19.4976 89.8396 19.5245 89.971C19.6292 90.0233 19.7339 90.0757 19.8417 90.1296C19.8674 90.5925 19.8863 91.054 19.9012 91.5173C19.9091 91.6481 19.9171 91.779 19.9253 91.9138C19.9345 92.2905 19.9257 92.6168 19.8417 92.9843C19.1721 93.6323 18.2417 93.8953 17.3736 94.2035C17.2408 94.2522 17.108 94.301 16.9712 94.3512C15.785 94.7804 14.7669 94.9197 13.5079 94.9271C13.2983 94.932 13.2983 94.932 13.0844 94.937C12.2532 94.942 11.6799 94.8755 10.9605 94.4116C10.4832 93.9344 10.4552 93.4241 10.4252 92.7662C10.4382 92.1518 10.5445 91.7666 10.9939 91.3135C12.3327 90.2173 14.1042 89.178 15.8769 89.178C15.8689 89.0787 15.861 88.9794 15.8528 88.8771C15.7692 87.8298 15.6871 86.7824 15.6058 85.7349C15.5754 85.3457 15.5447 84.9564 15.5135 84.5672C15.3403 82.4003 15.1869 80.251 15.2425 78.0765C15.1438 78.0702 15.0451 78.0639 14.9434 78.0574C7.36798 77.5543 7.36798 77.5543 5.56827 75.539C4.11407 73.2123 5.09657 69.8467 5.65825 67.3713C6.3029 64.5884 7.12482 61.844 7.99054 59.1227C8.10542 58.7292 8.1903 58.338 8.26436 57.9351C8.1463 57.8514 8.1463 57.8514 8.02585 57.766C7.25221 57.2037 6.49703 56.6149 5.88545 55.8734C5.88545 55.7687 5.88545 55.664 5.88545 55.5562C5.78078 55.5562 5.67611 55.5562 5.56827 55.5562C4.14257 53.5028 3.43179 51.739 3.66514 49.2124C4.07393 47.6955 5.7749 46.6341 7.03959 45.8857C8.34754 45.1581 9.7232 44.5186 11.119 43.9788C11.1762 43.6045 11.1762 43.6045 11.119 43.1859C10.8331 42.8909 10.8331 42.8909 10.4351 42.6605C10.2922 42.5673 10.1493 42.4741 10.0021 42.378C9.84732 42.2783 9.69256 42.1785 9.53311 42.0757C9.20756 41.8502 8.88371 41.6223 8.56172 41.3918C8.34032 41.2357 8.34032 41.2357 8.11444 41.0764C7.95314 40.943 7.95314 40.943 7.78858 40.8069C7.78858 40.7023 7.78858 40.5976 7.78858 40.4898C7.65242 40.4309 7.65242 40.4309 7.51352 40.3708C7.09868 40.1419 6.81359 39.8741 6.48018 39.5382C6.36815 39.427 6.25612 39.3158 6.14069 39.2012C5.88545 38.9038 5.88545 38.9038 5.88545 38.5866C5.78078 38.5866 5.67611 38.5866 5.56827 38.5866C5.18018 38.1691 4.85463 37.6977 4.51758 37.2386C4.41788 37.103 4.31818 36.9675 4.21546 36.8278C3.24818 35.4827 2.16578 33.9177 1.92061 32.2429C1.81594 32.2429 1.71126 32.2429 1.60342 32.2429C1.14743 31.072 0.800287 29.9139 0.542826 28.6844C0.50885 28.5234 0.474876 28.3623 0.439872 28.1963C0.216837 27.1104 0.0361274 26.0582 0.0174841 24.9476C0.0144689 24.8244 0.0114536 24.7013 0.0083464 24.5745C-0.145163 17.732 1.81382 12.0906 6.31291 6.89762C6.51983 6.70929 6.51983 6.70929 6.83702 6.70929C6.83702 6.60462 6.83702 6.49995 6.83702 6.3921C6.94169 6.3921 7.04636 6.3921 7.1542 6.3921C7.1542 6.28743 7.1542 6.18276 7.1542 6.07492C7.47176 5.79259 7.78959 5.53094 8.12559 5.27204C8.22553 5.19452 8.32548 5.117 8.42845 5.03713C10.0161 3.8228 11.6789 2.78748 13.498 1.95148C13.6398 1.8834 13.7817 1.81532 13.9279 1.74518C18.0665 -0.127065 22.8661 -0.325419 27.2956 0.365541ZM14.6081 4.17178C14.4258 4.26317 14.2434 4.35455 14.0555 4.4487C12.7787 5.10043 11.6194 5.82791 10.4847 6.70928C10.3446 6.81334 10.2046 6.9174 10.0603 7.02461C9.54569 7.40615 9.54569 7.40615 9.05734 7.81944C9.05734 7.92411 9.05734 8.02878 9.05734 8.13663C8.95921 8.17588 8.86108 8.21513 8.75998 8.25557C8.36735 8.48653 8.2721 8.67238 8.10578 9.08819C8.0011 9.08819 7.89643 9.08819 7.78859 9.08819C7.47485 9.41638 7.47485 9.41638 7.15421 9.8316C7.043 9.96959 6.93179 10.1076 6.8172 10.2498C6.53725 10.6493 6.36145 11.0081 6.20265 11.4671C6.09798 11.4671 5.99331 11.4671 5.88546 11.4671C2.81947 16.5638 1.40183 22.1183 2.80117 28.0126C3.16458 29.3739 3.67676 30.6623 4.29953 31.9257C4.35391 32.0477 4.40829 32.1698 4.46432 32.2955C5.89178 35.3918 8.29651 37.9404 10.9605 40.014C11.2018 39.5312 11.1138 39.0556 11.0937 38.5241C11.123 38.0465 11.2223 37.7462 11.4362 37.3179C12.4185 36.458 13.4682 36.2082 14.7382 36.1501C14.9065 36.1396 15.0747 36.1291 15.2481 36.1183C17.6456 35.9872 20.0499 36.008 22.45 36.0181C22.9622 36.0198 23.4744 36.0198 23.9866 36.0197C26.366 36.0197 28.7447 36.0332 31.1229 36.1105C31.3734 36.1176 31.3734 36.1176 31.6289 36.1249C33.9012 36.2116 33.9012 36.2116 34.7495 36.5249C34.9437 36.8199 34.9437 36.8199 35.0667 37.1593C35.1342 37.34 35.2016 37.5207 35.2712 37.7069C35.3422 37.9075 35.4128 38.1082 35.483 38.3091C35.5194 38.4121 35.5558 38.5152 35.5933 38.6213C35.6825 38.8739 35.7711 39.1268 35.8597 39.3796C40.1139 36.4563 42.7115 31.4605 43.6574 26.497C44.3402 22.7073 43.7782 19.1884 42.5206 15.5905C42.4159 15.5905 42.3113 15.5905 42.2034 15.5905C42.1871 15.4564 42.1707 15.3223 42.1539 15.1841C42.0317 14.5732 41.8287 14.0933 41.5691 13.5288C41.4644 13.5288 41.3597 13.5288 41.2519 13.5288C41.2355 13.4143 41.2192 13.2998 41.2023 13.1819C41.0825 12.6918 40.9101 12.3525 40.6175 11.9429C40.5128 11.9429 40.4081 11.9429 40.3003 11.9429C40.2643 11.8349 40.2283 11.727 40.1913 11.6158C39.9336 11.0391 39.6139 10.511 39.1902 10.0398C39.0855 10.0398 38.9808 10.0398 38.873 10.0398C38.8272 9.94489 38.7814 9.85003 38.7342 9.7523C38.5483 9.37472 38.5483 9.37472 38.2386 8.9296C38.1339 8.9296 38.0292 8.9296 37.9214 8.9296C37.9214 8.82492 37.9214 8.72025 37.9214 8.61241C37.6925 8.36834 37.6925 8.36834 37.3862 8.1168C37.2138 7.97022 37.2138 7.97022 37.038 7.82068C36.3875 7.28318 35.7313 6.75342 35.0667 6.2335C34.9563 6.14273 34.8459 6.05196 34.7322 5.95844C34.4266 5.71361 34.4266 5.71361 33.9566 5.75772C33.9566 5.65305 33.9566 5.54838 33.9566 5.44053C33.6949 5.3882 33.4332 5.33586 33.1636 5.28194C33.1636 5.17727 33.1636 5.0726 33.1636 4.96475C30.2304 3.52164 27.2683 2.41228 23.9652 2.26866C23.8116 2.26028 23.6581 2.2519 23.4999 2.24326C20.5273 2.15616 17.2607 2.80599 14.6081 4.17178ZM14.9253 38.9038C14.5559 39.0121 14.1859 39.118 13.8151 39.221C13.6581 39.3257 13.5011 39.4303 13.3393 39.5382C13.2815 39.9611 13.2815 39.9611 13.3096 40.4303C13.3139 40.5893 13.3182 40.7484 13.3226 40.9123C13.3281 41.0345 13.3336 41.1568 13.3393 41.2827C13.601 41.3351 13.8627 41.3874 14.1323 41.4413C14.1846 41.9647 14.237 42.488 14.2909 43.0272C14.7619 43.0796 15.2329 43.1319 15.7182 43.1858C15.7768 44.5131 15.7768 44.5131 15.4803 45.0196C15.4018 45.0948 15.3233 45.17 15.2425 45.2476C15.2948 45.2999 15.3471 45.3522 15.401 45.4062C15.4125 45.7 15.4143 45.9943 15.411 46.2883C15.4095 46.4488 15.4081 46.6093 15.4066 46.7746C15.4048 46.8987 15.4029 47.0228 15.401 47.1507C14.616 47.2292 14.616 47.2292 13.8151 47.3093C13.8151 48.0943 13.8151 48.8794 13.8151 49.6882C14.0768 49.7405 14.3385 49.7929 14.6081 49.8468C14.6866 49.7683 14.6866 49.7683 14.7667 49.6882C15.0573 49.6702 15.3486 49.6633 15.6398 49.6607C15.8281 49.6585 16.0164 49.6564 16.2104 49.6541C16.5209 49.6517 16.5209 49.6517 16.8377 49.6492C17.0542 49.6468 17.2706 49.6443 17.4871 49.6418C17.9489 49.6364 18.4108 49.6314 18.8727 49.6266C22.2935 49.5904 25.7121 49.543 29.1293 49.371C29.264 49.3644 29.3987 49.3577 29.5375 49.3509C31.4368 49.2721 31.4368 49.2721 33.3221 49.0538C33.6548 48.7197 33.6548 48.7197 33.7979 48.2608C33.8601 48.1202 33.9222 47.9795 33.9863 47.8346C34.1602 47.1256 34.1409 46.4495 34.1151 45.7233C33.9581 45.8018 33.9581 45.8018 33.7979 45.8819C33.4479 45.8932 33.0975 45.8953 32.7472 45.8918C32.5587 45.8904 32.3703 45.889 32.176 45.8875C32.0309 45.8857 31.8858 45.8838 31.7362 45.8819C31.7885 45.3062 31.8409 44.7305 31.8948 44.1374C31.6593 43.9804 31.6593 43.9804 31.419 43.8202C31.3726 43.3729 31.3726 43.3729 31.3893 42.8488C31.3957 42.5882 31.3957 42.5882 31.4023 42.3223C31.4078 42.1885 31.4133 42.0548 31.419 41.9171C31.733 41.9171 32.047 41.9171 32.3706 41.9171C32.4229 41.6031 32.4753 41.2891 32.5292 40.9655C33.1572 40.887 33.1572 40.887 33.7979 40.8069C33.7165 39.9924 33.4461 39.0278 32.8464 38.428C29.5789 37.9079 26.117 38.092 22.819 38.0829C22.4229 38.0817 22.0269 38.08 21.6308 38.0778C18.1476 37.8907 18.1476 37.8907 14.9253 38.9038ZM36.3354 44.9304C36.3345 45.0715 36.3345 45.0715 36.3335 45.2154C36.2881 48.9678 36.2881 48.9678 35.3839 50.6397C35.2066 50.7937 35.2066 50.7937 35.0258 50.9507C34.9346 51.0574 34.8435 51.1642 34.7495 51.2741C34.7846 51.7673 34.7846 51.7673 34.9775 52.305C35.042 52.515 35.106 52.7253 35.1695 52.9356C35.2047 53.0493 35.2398 53.1631 35.2759 53.2802C35.3938 53.6874 35.4926 54.0963 35.5883 54.5092C35.622 54.6532 35.6556 54.7972 35.6903 54.9456C35.7564 55.2313 35.8213 55.5173 35.885 55.8036C35.9161 55.9342 35.9472 56.0647 35.9792 56.1992C36.0193 56.3746 36.0193 56.3746 36.0601 56.5535C36.1179 56.6878 36.1179 56.6878 36.1769 56.8249C36.674 57.0494 36.674 57.0494 37.222 56.7369C37.453 56.6165 37.6828 56.4937 37.9115 56.3689C38.0924 56.2713 38.0924 56.2713 38.277 56.1716C40.0774 55.1773 42.4218 53.7662 43.155 51.7499C43.4571 50.6789 43.369 49.7831 42.8917 48.7911C42.3941 47.9207 41.7932 47.058 40.9347 46.5163C40.7777 46.5163 40.6207 46.5163 40.4589 46.5163C40.4589 46.4116 40.4589 46.307 40.4589 46.1991C40.0396 46.046 39.62 45.8943 39.2001 45.7432C39.0834 45.7004 38.9668 45.6577 38.8466 45.6137C38.0201 45.3177 37.1964 45.1013 36.3354 44.9304ZM6.83707 49.2124C6.72667 49.3018 6.61627 49.3911 6.50253 49.4832C6.21405 49.7557 6.03766 49.9562 5.8855 50.3226C5.88307 51.696 7.01151 52.9188 7.78863 53.9702C7.8933 54.1272 7.99797 54.2843 8.10581 54.446C8.21049 54.446 8.31516 54.446 8.423 54.446C8.423 54.5507 8.423 54.6554 8.423 54.7632C8.73408 54.9836 9.0513 55.1955 9.37457 55.3976C9.413 55.2672 9.45143 55.1367 9.49103 55.0023C9.78036 54.0387 10.0865 53.0962 10.4723 52.1669C10.7527 51.4832 11.0091 50.7903 11.2696 50.0989C11.4363 49.6882 11.4363 49.6882 11.5949 49.5296C11.602 49.236 11.602 49.236 11.5757 48.8897C11.568 48.7614 11.5603 48.6331 11.5524 48.5009C11.5391 48.2987 11.5391 48.2987 11.5255 48.0924C11.5131 47.8892 11.5131 47.8892 11.5004 47.6819C11.4798 47.3462 11.4581 47.0106 11.4363 46.6749C9.96482 46.6749 7.89682 48.3239 6.83707 49.2124ZM29.1169 51.5021C28.7639 51.5166 28.4108 51.5311 28.0577 51.5454C27.8749 51.553 27.6921 51.5605 27.5038 51.5682C24.3294 51.6979 21.1637 51.7872 17.9867 51.7381C17.8661 51.7368 17.7455 51.7354 17.6212 51.7341C17.3014 51.7303 16.9817 51.7247 16.6619 51.7189C16.1747 51.6996 16.1747 51.6996 15.8768 52.0671C15.5788 52.1031 15.5788 52.1031 15.2214 52.098C15.0936 52.097 14.9658 52.096 14.8342 52.095C14.7007 52.0923 14.5672 52.0896 14.4297 52.0869C14.2276 52.0848 14.2276 52.0848 14.0214 52.0826C13.6883 52.0788 13.3552 52.0731 13.0221 52.0671C12.5443 53.2179 12.1316 54.3823 11.7435 55.566C11.6898 55.7285 11.6361 55.8909 11.5809 56.0582C11.4754 56.3776 11.3701 56.697 11.265 57.0164C11.1358 57.4085 11.0053 57.8001 10.8743 58.1915C8.37454 65.1057 8.37454 65.1057 7.26321 72.2977C7.25728 72.5007 7.25135 72.7037 7.24524 72.9129C7.32689 73.5953 7.4373 73.812 7.94714 74.2702C8.85538 74.7932 9.81877 75.0503 10.8415 75.2416C11.0471 75.2808 11.0471 75.2808 11.2568 75.3207C16.516 76.2794 21.8134 75.9116 27.0567 75.0576C28.6293 74.8026 30.2039 74.5878 31.7858 74.3991C31.951 74.3792 31.951 74.3792 32.1195 74.359C33.162 74.2342 34.2046 74.1151 35.25 74.0187C35.391 74.0054 35.532 73.9922 35.6773 73.9785C35.9268 73.9559 36.1765 73.9351 36.4264 73.9167C36.8858 73.8759 37.2591 73.8075 37.6779 73.6104C38.0974 73.1077 37.9821 72.6107 37.9386 71.9857C37.7033 69.6463 36.8813 67.2606 36.1138 65.0474C35.984 64.6497 35.8919 64.2439 35.7952 63.8371C35.6804 63.4087 35.5378 62.9934 35.3938 62.5739C35.1279 61.7909 34.917 61.0081 34.7247 60.2043C34.569 59.5939 34.3873 58.9937 34.2043 58.391C33.8129 57.0924 33.5168 55.7808 33.236 54.4546C33.1618 54.1212 33.0786 53.791 32.9932 53.4603C32.8274 52.7825 32.7527 52.1248 32.6878 51.4327C31.4953 51.4235 30.3082 51.45 29.1169 51.5021Z" fill="#000000" />
    <path d="M4.3736 0.0180473C4.39838 0.396568 4.39838 0.396568 4.3736 0.811016C3.97712 1.09847 3.97712 1.09847 3.58064 1.2868C3.67999 1.29457 3.77935 1.30234 3.88172 1.31034C4.01133 1.3222 4.14094 1.33405 4.27448 1.34627C4.40328 1.35731 4.53207 1.36835 4.66477 1.37973C5.00798 1.44539 5.00798 1.44539 5.32517 1.76258C5.38347 2.13181 5.43657 2.50192 5.48376 2.87274C5.5361 2.92507 5.58843 2.97741 5.64235 3.03133C5.66387 3.61233 5.66846 4.06317 5.48376 4.61727C5.64077 4.66961 5.79778 4.72194 5.95954 4.77586C6.01973 5.75896 5.93341 6.4328 5.48376 7.31336C5.11377 7.32009 4.7436 7.31985 4.3736 7.31336C4.21501 7.15477 4.21501 7.15477 4.2051 6.66908C4.20837 6.51534 4.21164 6.3616 4.21501 6.20321C4.0531 6.28171 4.0531 6.28171 3.88791 6.3618C3.34141 6.54784 2.88536 6.54288 2.31189 6.52039C2.25333 5.32972 2.25333 5.32972 2.54978 4.93446C2.62828 4.88212 2.70678 4.82978 2.78767 4.77586C2.73533 4.77586 2.68299 4.77586 2.62907 4.77586C2.10043 4.77586 1.57178 4.77586 1.04314 4.77586C1.04314 4.35717 1.04314 3.93849 1.04314 3.50711C1.35715 3.35011 1.67117 3.1931 1.9947 3.03133C1.80856 3.01692 1.80856 3.01692 1.61866 3.00221C1.45818 2.98893 1.29769 2.97564 1.13235 2.96194C0.892233 2.94263 0.892233 2.94263 0.647272 2.92292C0.250168 2.87274 0.250168 2.87274 0.0915737 2.71414C-0.0540867 1.6399 -0.0540867 1.6399 0.300348 1.16661C1.58611 0.0217934 2.70154 -0.049839 4.3736 0.0180473Z" fill="#000000" transform="translate(20.86 40.63)" />
    <path d="M0.352407 0.0774384C0.606449 0.0559902 0.861012 0.0406265 1.11564 0.0278778C1.25731 0.0186787 1.39899 0.00947762 1.54496 0C1.93834 0.0774384 1.93834 0.0774384 2.19687 0.410618C2.45743 0.962069 2.4756 1.35207 2.47731 1.96074C2.47793 2.16927 2.47854 2.37779 2.47917 2.59264C2.47818 2.70048 2.47718 2.80832 2.47615 2.91943C2.4736 3.24839 2.47613 3.57704 2.47917 3.90599C2.47856 4.11452 2.47795 4.32304 2.47731 4.53789C2.47678 4.72802 2.47624 4.91814 2.47569 5.11403C2.40875 5.67309 2.27883 5.97654 1.93834 6.42119C1.5908 6.50978 1.5908 6.50978 1.21476 6.49058C1.02801 6.48536 1.02801 6.48536 0.837481 6.48004C0.511002 6.42119 0.511002 6.42119 0.193813 6.104C0.143246 5.80954 0.143246 5.80954 0.128145 5.45166C0.121975 5.32002 0.115803 5.18837 0.109444 5.05274C0.102142 4.84205 0.102142 4.84205 0.0946922 4.6271C0.0889034 4.48429 0.0831165 4.34147 0.0771523 4.19433C0.0611 3.77364 0.0476742 3.35294 0.0352192 2.93213C0.0315151 2.82045 0.0278091 2.70878 0.0239906 2.59372C-0.0275135 0.904858 -0.0275135 0.904858 0.352407 0.0774384Z" fill="#000000" transform="translate(16.635 24.394)" />
    <path d="M1.3022 0.00681496C1.44429 0.00456619 1.58637 0.00231743 1.73276 0C2.10508 0.0365505 2.10508 0.0365505 2.42227 0.353739C2.48981 0.984488 2.44346 1.62373 2.42227 2.25686C2.41836 2.38121 2.41445 2.50556 2.41042 2.63368C2.39674 3.04014 2.38026 3.44639 2.3628 3.85271C2.35793 3.98487 2.35306 4.11702 2.34805 4.25318C2.34188 4.37801 2.3357 4.50283 2.32935 4.63143C2.32436 4.74306 2.31938 4.8547 2.31425 4.96972C2.26368 5.27014 2.26368 5.27014 1.94649 5.74592C1.57974 5.80911 1.57974 5.80911 1.15352 5.8054C1.01287 5.80662 0.872215 5.80785 0.727301 5.80911C0.606274 5.78826 0.485247 5.76741 0.360554 5.74592C0.00362206 5.21053 0.0026722 5.02254 0.00123978 4.3954C0.000829697 4.22306 0.000421524 4.05072 0 3.87315C0.00122643 3.69305 0.00245285 3.51294 0.00371742 3.32737C0.002491 3.14971 0.00126457 2.97206 0 2.78902C0.00654793 0.0161095 0.00654793 0.0161095 1.3022 0.00681496Z" fill="#000000" transform="translate(24.873 25.387)" />
  </g>
</svg>