<?xml version="1.0" encoding="utf-8"?>
<svg width="84.503" height="159.673" viewBox="0 0 84.503 159.673" fill="none" xmlns="http://www.w3.org/2000/svg">
  <g>
    <path d="M30.5907 0.000804901C30.6958 0.000537872 30.801 0.000274658 30.9093 0C32.5701 -0.00025177 34.1298 0.117027 35.745 0.516235C35.8972 0.552341 35.8972 0.552341 36.0525 0.58918C39.2854 1.3682 42.0673 2.84601 44.6262 4.95686C44.7757 5.07012 44.9251 5.18338 45.0791 5.30006C45.2474 5.44419 45.2474 5.44419 45.4192 5.59123C45.4192 5.69591 45.4192 5.80058 45.4192 5.90842C45.5108 5.94767 45.6024 5.98692 45.6967 6.02737C46.1058 6.25463 46.3805 6.50858 46.6879 6.85999C46.6879 6.96466 46.6879 7.06933 46.6879 7.17717C46.7926 7.17717 46.8973 7.17717 47.0051 7.17717C47.4674 7.72839 47.8633 8.33146 48.2739 8.9217C48.3816 9.07033 48.4894 9.21896 48.6004 9.37209C49.4857 10.6302 50.0873 11.9406 50.6528 13.3623C50.7282 13.5473 50.8037 13.7324 50.8814 13.923C51.4285 15.3454 51.7159 16.7747 51.9215 18.2787C51.9368 18.389 51.9521 18.4992 51.9679 18.6128C52.6639 24.1529 51.4367 29.9514 48.0744 34.4596C47.7275 34.8905 47.3702 35.3085 47.0051 35.724C46.8947 35.8555 46.7843 35.987 46.6706 36.1224C44.9003 38.1802 42.5229 40.1891 39.8684 40.9576C39.9385 41.112 40.0087 41.2663 40.0809 41.4254C40.8334 43.1906 41.1734 45.1077 41.3094 47.0121C41.3286 47.2728 41.3286 47.2728 41.3483 47.5389C41.5239 50.1361 41.5596 52.7404 41.6139 55.3424C41.6375 56.4616 41.6631 57.5807 41.6885 58.6999C41.6947 58.9732 41.7008 59.2464 41.7069 59.5197C41.7446 61.2149 41.7919 62.9091 41.8564 64.6036C42.0568 69.921 41.9902 75.1057 41.2346 80.3795C41.1518 80.9624 41.0854 81.5454 41.0269 82.1313C40.6914 85.131 39.6133 87.9777 38.6529 90.8236C38.6046 90.9673 38.5562 91.111 38.5063 91.2591C38.4607 91.3924 38.4152 91.5258 38.3682 91.6632C38.3286 91.7795 38.2889 91.8957 38.2481 92.0154C37.9553 92.7852 37.7293 93.0333 37.0137 93.4522C36.9385 93.5634 36.8633 93.6746 36.7858 93.7892C36.4271 94.2195 36.1391 94.1818 35.5864 94.2451C35.1302 94.2699 34.6753 94.2753 34.2185 94.2749C34.0936 94.275 33.9687 94.2751 33.8401 94.2752C32.8124 94.266 31.8346 94.1378 30.8286 93.9279C30.5957 95.0852 30.4476 96.2208 30.3751 97.3984C30.3523 97.736 30.3294 98.0736 30.3064 98.4112C30.2947 98.588 30.283 98.7647 30.2709 98.9468C29.7732 106.355 28.9332 113.709 27.8153 121.047C28.6003 121.1 29.3854 121.152 30.1942 121.206C30.2465 121.415 30.2989 121.625 30.3528 121.84C30.6668 121.893 30.9808 121.945 31.3044 121.999C31.3174 122.097 31.3305 122.195 31.344 122.296C31.449 122.718 31.449 122.718 32.0973 122.951C32.0973 123.474 32.0973 123.997 32.0973 124.537C28.8219 126.069 24.1829 126.267 20.6786 125.488C20.0791 125.239 19.5535 124.982 19.2512 124.378C19.2134 124.022 19.2134 124.022 19.2017 123.605C19.1928 123.399 19.1928 123.399 19.1837 123.19C19.2792 122.627 19.4177 122.491 19.8856 122.158C20.4299 121.946 20.9856 121.798 21.5508 121.652C21.6984 121.611 21.846 121.57 21.9981 121.527C23.0879 121.237 24.1527 121.108 25.2778 121.047C25.9742 115.953 26.4082 110.868 26.7152 105.736C26.8882 102.846 27.0797 99.9609 27.3692 97.08C27.3827 96.9461 27.3961 96.8121 27.4099 96.6742C27.6291 94.5093 27.6291 94.5093 27.8153 93.4522C27.7116 93.4446 27.6078 93.4371 27.5009 93.4293C23.053 93.0702 18.6875 91.7451 14.4934 90.2803C14.5007 90.4761 14.5007 90.4761 14.508 90.6758C14.5492 92.8092 14.3204 94.9125 14.1092 97.0332C14.0203 97.931 13.9347 98.8291 13.8487 99.7272C13.8262 99.9622 13.8036 100.197 13.7811 100.432C13.605 102.266 13.4401 104.101 13.2835 105.936C13.2731 106.059 13.2626 106.182 13.2518 106.308C13.1504 107.499 13.05 108.691 12.9503 109.883C12.7601 112.155 12.5616 114.426 12.3344 116.695C12.3148 116.891 12.2952 117.087 12.2749 117.289C12.2563 117.473 12.2376 117.657 12.2184 117.846C12.2011 118.016 12.1839 118.186 12.1661 118.362C12.1211 118.768 12.0644 119.17 12.0035 119.574C11.9878 119.746 11.9721 119.919 11.9559 120.096C12.24 120.433 12.24 120.433 12.5903 120.73C12.8478 121.426 13.0019 122.053 12.9075 122.792C12.4683 123.605 11.9339 124.206 11.0576 124.538C8.05876 125.223 4.73249 125.246 1.80592 124.219C1.4324 124.173 1.06403 124.151 0.688324 124.131C0.378571 124.061 0.378571 124.061 0.0613861 123.585C-0.00180817 123.095 -0.0372238 122.785 0.0613861 122.316C0.715935 121.512 1.60758 121.273 2.56357 120.929C3.00359 120.758 3.36939 120.572 3.76851 120.324C5.16108 119.521 6.7272 119.277 8.30826 119.206C8.43113 119.2 8.55399 119.194 8.68058 119.187C8.97934 119.172 9.27817 119.158 9.57701 119.144C10.0638 114.853 10.4751 110.56 10.8153 106.255C11.0507 103.282 11.3257 100.317 11.6403 97.3518C11.9229 94.6802 12.1378 92.012 12.2731 89.3287C12.082 89.2201 12.082 89.2201 11.8871 89.1092C11.6338 88.9637 11.6338 88.9637 11.3754 88.8152C11.2088 88.7198 11.0422 88.6245 10.8705 88.5263C10.1203 88.0651 9.45682 87.5153 8.78404 86.9498C8.37626 86.6202 7.96792 86.2985 7.54503 85.9883C7.3733 85.8363 7.3733 85.8363 7.1981 85.6811C7.1981 85.5241 7.1981 85.3671 7.1981 85.2053C7.09343 85.2053 6.98876 85.2053 6.88092 85.2053C6.70322 84.8032 6.5287 84.4001 6.35558 83.996C6.30661 83.886 6.25765 83.776 6.2072 83.6627C5.27927 81.4748 5.21 79.3152 5.22559 76.9782C5.22607 76.8253 5.22656 76.6723 5.22705 76.5147C5.24952 71.6724 5.88892 66.8374 7.3567 62.2092C7.26371 62.2347 7.17073 62.2602 7.07494 62.2865C5.75031 62.5919 3.96554 62.5459 2.75748 61.892C2.29414 61.5213 2.15232 61.3453 1.96451 60.7819C1.74628 58.1085 3.71389 55.447 5.13638 53.328C5.21755 53.2016 5.29871 53.0753 5.38233 52.9451C6.45123 51.2891 7.71203 49.772 8.99343 48.2784C9.27654 47.9473 9.55273 47.6122 9.82357 47.271C9.94828 47.1142 10.073 46.9574 10.2015 46.7959C10.3108 46.6562 10.4202 46.5166 10.5329 46.3727C10.8369 46.0423 11.0673 45.8808 11.4801 45.7155C11.4801 45.6108 11.4801 45.5061 11.4801 45.3983C11.5848 45.3983 11.6895 45.3983 11.7973 45.3983C11.7973 45.2936 11.7973 45.1889 11.7973 45.0811C12.0546 44.8099 12.3198 44.5461 12.5903 44.2881C12.6786 44.1933 12.7669 44.0984 12.8579 44.0007C13.0661 43.8123 13.0661 43.8123 13.3833 43.8123C13.4356 43.6553 13.4879 43.4983 13.5419 43.3365C13.7847 43.0918 13.7847 43.0918 14.0969 42.831C14.725 42.3004 15.3337 41.7522 15.9393 41.1962C16.2379 40.9576 16.2379 40.9576 16.5551 40.9576C16.5551 40.853 16.5551 40.7483 16.5551 40.6404C16.8112 40.4127 17.0773 40.1962 17.3481 39.9863C17.4953 39.8714 17.6425 39.7565 17.7941 39.6381C17.9086 39.5502 18.0231 39.4623 18.1411 39.3717C17.5473 38.7397 16.9036 38.2284 16.2051 37.7145C16.1113 37.6334 16.0174 37.5522 15.9208 37.4686C15.9208 37.3639 15.9208 37.2592 15.9208 37.1514C15.8312 37.1144 15.7417 37.0774 15.6494 37.0393C12.7318 35.3913 10.7877 30.6844 9.8942 27.6358C9.86062 27.5247 9.82704 27.4136 9.79244 27.2992C9.24343 25.3964 9.20169 23.4953 9.20035 21.5299C9.20003 21.4069 9.19972 21.2838 9.19939 21.157C9.19982 19.6921 9.26822 18.2894 9.57701 16.8514C9.60673 16.7118 9.63645 16.5721 9.66707 16.4283C9.75701 16.0259 9.85396 15.6259 9.95367 15.2258C9.98474 15.0937 10.0158 14.9617 10.0478 14.8256C10.2384 14.0562 10.4881 13.384 10.8601 12.6841C11.0291 12.3639 11.1602 12.0379 11.2819 11.6971C11.3473 11.5139 11.4127 11.3307 11.4801 11.142C11.5848 11.142 11.6895 11.142 11.7973 11.142C11.8086 11.0331 11.8198 10.9241 11.8314 10.8118C11.9928 10.212 12.3138 9.77892 12.6795 9.28845C12.7502 9.19183 12.821 9.09521 12.8938 8.99566C14.3044 7.08123 14.3044 7.08123 14.8106 6.5428C14.9153 6.5428 15.0199 6.5428 15.1278 6.5428C15.1801 6.38579 15.2325 6.22878 15.2864 6.06702C15.3911 6.06702 15.4957 6.06702 15.6036 6.06702C15.6036 5.96234 15.6036 5.85767 15.6036 5.74983C19.7079 1.85938 25.0047 0.0140839 30.5907 0.000804901ZM19.5684 5.90842C19.4541 5.99469 19.3399 6.08097 19.2221 6.16985C15.9115 8.7059 13.2767 12.1701 12.1145 16.217C12.0859 16.3163 12.0573 16.4155 12.0278 16.5178C10.7297 21.2057 11.4437 26.2731 13.7382 30.5388C14.3406 31.5987 15.0354 32.578 15.821 33.5112C16.0793 33.8209 16.0793 33.8209 16.3965 34.2967C16.5012 34.2967 16.6059 34.2967 16.7137 34.2967C16.7137 34.4014 16.7137 34.506 16.7137 34.6139C16.8184 34.6139 16.9231 34.6139 17.0309 34.6139C17.0309 34.7186 17.0309 34.8232 17.0309 34.9311C17.1356 34.9311 17.2403 34.9311 17.3481 34.9311C17.3481 35.0358 17.3481 35.1404 17.3481 35.2483C18.8253 36.8594 21.2711 38.486 23.3747 39.0545C24.0931 38.0579 24.1914 37.4137 24.1676 36.1998C24.6387 36.1475 25.1097 36.0952 25.595 36.0412C25.595 36.1982 25.595 36.3552 25.595 36.517C25.9904 36.3261 26.3374 36.1278 26.7051 35.8826C27.0638 35.8517 27.0638 35.8517 27.4485 35.8628C27.5767 35.8657 27.7049 35.8685 27.837 35.8715C27.9345 35.8752 28.032 35.8788 28.1325 35.8826C28.055 36.8429 28.055 36.8429 27.9739 37.1514C27.8169 37.2561 27.6599 37.3607 27.4981 37.4686C27.4981 37.5732 27.4981 37.6779 27.4981 37.7858C27.7598 37.8381 28.0215 37.8904 28.2911 37.9444C28.2911 38.363 28.2911 38.7817 28.2911 39.2131C27.82 39.2654 27.349 39.3178 26.8637 39.3717C26.7591 39.6334 26.6544 39.8951 26.5465 40.1647C30.6057 41.4332 35.368 40.5354 39.0863 38.6233C41.9428 37.0961 45.5769 34.6458 46.6879 31.442C46.7926 31.442 46.8973 31.442 47.0051 31.442C49.3858 26.8401 50.7568 21.8513 49.2498 16.7105C48.5987 14.7152 47.8397 12.7625 46.6186 11.0429C46.5573 10.9565 46.4961 10.8701 46.433 10.781C46.2548 10.5305 46.0749 10.2812 45.895 10.0319C45.7985 9.8955 45.702 9.75914 45.6026 9.61865C45.2897 9.17719 45.2897 9.17719 44.9434 8.76311C44.8387 8.76311 44.7341 8.76311 44.6262 8.76311C44.5624 8.61101 44.5624 8.61101 44.4974 8.45583C44.327 8.07619 44.327 8.07619 43.8333 7.97014C43.8333 7.86547 43.8333 7.7608 43.8333 7.65295C43.7286 7.65295 43.6239 7.65295 43.5161 7.65295C43.5161 7.54828 43.5161 7.44361 43.5161 7.33577C39.7425 3.89111 34.8996 2.068 29.8064 2.20625C26.2916 2.37753 22.2992 3.62903 19.5684 5.90842ZM20.2821 40.8189C20.0145 41.1165 20.0145 41.1165 19.9042 41.5623C19.7242 42.0759 19.5187 42.4091 19.1918 42.8409C19.0795 42.9908 18.9673 43.1406 18.8516 43.295C18.7205 43.4675 18.5894 43.6399 18.4583 43.8123C18.1373 44.2382 17.817 44.6646 17.4968 45.091C17.4146 45.2004 17.3324 45.3097 17.2477 45.4224C15.7328 47.4424 14.4692 49.4997 13.3682 51.7702C13.232 52.0444 13.0858 52.3134 12.9391 52.5821C12.6903 53.013 12.6903 53.013 12.9075 53.4865C12.9598 53.3295 13.0122 53.1725 13.0661 53.0108C13.3932 52.8224 13.3932 52.8224 13.7004 52.6936C13.7004 52.5889 13.7004 52.4842 13.7004 52.3764C13.7918 52.3384 13.8832 52.3003 13.9774 52.2612C14.4074 52.0182 14.6559 51.7387 14.9791 51.3654C15.3714 50.916 15.7638 50.4715 16.176 50.0402C17.4067 48.7509 18.4122 47.3483 19.4098 45.8741C19.4825 45.7677 19.5552 45.6614 19.6301 45.5519C21.2357 43.5243 21.2357 43.5243 22.1059 41.2748C21.9015 41.1683 21.6965 41.0628 21.4914 40.9576C21.3773 40.8988 21.2632 40.8399 21.1457 40.7792C20.7654 40.6082 20.6219 40.564 20.2821 40.8189ZM36.0225 42.2859C32.8666 43.0882 29.5883 43.0458 26.3879 42.5436C26.0179 42.4904 25.6479 42.4375 25.2778 42.385C25.1281 42.6294 25.1281 42.6294 24.9755 42.8787C24.2408 44.0706 23.4958 45.2304 22.6449 46.3436C22.3932 46.6452 22.3932 46.6452 22.4231 46.9842C22.3184 46.9842 22.2138 46.9842 22.1059 46.9842C21.9512 47.2082 21.7978 47.4331 21.652 47.6629C21.3565 48.1096 21.007 48.5113 20.6587 48.9171C20.583 49.006 20.5072 49.095 20.4291 49.1867C19.8006 49.9204 19.1542 50.6362 18.501 51.348C18.0979 51.7892 17.7048 52.2382 17.3128 52.6892C16.9844 53.0639 16.6511 53.4339 16.3172 53.8037C16.1976 53.9366 16.0781 54.0695 15.9548 54.2064C15.7293 54.457 15.5034 54.7073 15.2771 54.9573C15.1788 55.0672 15.0804 55.1772 14.9791 55.2906C14.8926 55.3866 14.8062 55.4827 14.7171 55.5817C14.4869 55.8738 14.3301 56.1622 14.1762 56.4998C14.0716 56.4998 13.9669 56.4998 13.859 56.4998C13.5773 56.7662 13.5773 56.7662 13.2941 57.1045C13.1957 57.2167 13.0974 57.3289 12.9961 57.4446C12.7197 57.7706 12.7197 57.7706 12.5903 58.2444C12.4856 58.2444 12.3809 58.2444 12.2731 58.2444C12.2731 58.349 12.2731 58.4537 12.2731 58.5615C12.1684 58.5615 12.0638 58.5615 11.9559 58.5615C11.9559 58.6662 11.9559 58.7709 11.9559 58.8787C11.8512 58.8787 11.7466 58.8787 11.6387 58.8787C11.3744 59.0902 11.3744 59.0902 11.1629 59.3545C11.1629 59.4592 11.1629 59.5639 11.1629 59.6717C11.0583 59.6717 10.9536 59.6717 10.8458 59.6717C10.7934 59.9334 10.7411 60.1951 10.6872 60.4647C12.7465 61.6165 14.8096 62.6738 17.0309 63.478C17.2457 63.5638 17.4605 63.6497 17.6752 63.7357C19.2616 64.3201 20.9755 64.8529 22.5817 64.1123C24.806 62.8705 26.6377 60.8609 28.4298 59.077C28.5411 58.9665 28.6523 58.856 28.7669 58.7422C29.3958 58.1113 29.9965 57.4651 30.5749 56.7875C30.8398 56.4871 31.1176 56.2054 31.4035 55.9249C31.8827 55.4522 32.3216 54.9725 32.7317 54.4381C32.7317 54.3334 32.7317 54.2288 32.7317 54.1209C32.8364 54.1209 32.941 54.1209 33.0489 54.1209C33.3441 53.7609 33.6144 53.4011 33.8815 53.0207C33.9642 52.9035 34.0469 52.7862 34.1321 52.6655C35.1832 51.1375 36.0615 49.5063 36.9427 47.8764C37.1365 47.5249 37.3402 47.1836 37.5502 46.8417C38.2594 45.4817 37.7134 43.5309 37.4895 42.0678C36.9194 42.0678 36.5611 42.1339 36.0225 42.2859ZM11.7973 48.8873C9.85297 51.1156 8.00299 53.3646 6.56249 55.9609C6.24654 56.4998 6.24654 56.4998 5.91263 56.9013C5.56002 57.3607 5.41276 57.7706 5.24542 58.3237C5.16293 58.5862 5.16293 58.5862 5.07877 58.854C4.97734 59.3567 4.99537 59.6599 5.13638 60.1475C5.9124 59.7932 6.54497 59.3557 7.20802 58.8292C7.30297 58.7561 7.39794 58.683 7.49578 58.6077C8.70687 57.6539 9.2187 56.7983 9.5671 55.3104C9.9283 53.8844 10.3693 52.5964 11.0044 51.2662C11.1869 50.8833 11.3684 50.5 11.5495 50.1164C11.6311 49.9488 11.7127 49.7811 11.7967 49.6084C11.8492 49.4751 11.9018 49.3418 11.9559 49.2045C11.8774 49.0475 11.8774 49.0475 11.7973 48.8873ZM38.2825 50.4733C38.1447 50.6903 38.015 50.9124 37.8885 51.1361C37.7657 51.3503 37.7657 51.3503 37.6404 51.5687C37.5513 51.7241 37.4623 51.8794 37.3706 52.0394C36.396 53.7125 35.3245 55.2729 34.159 56.817C33.9834 57.0534 33.8079 57.2899 33.6325 57.5264C32.7219 58.7445 31.7799 59.9033 30.7356 61.0092C30.4106 61.3548 30.1025 61.7071 29.7977 62.0704C28.2554 63.832 26.4159 65.2914 24.1676 66.0155C23.9822 66.096 23.7968 66.1766 23.6057 66.2595C20.5349 67.4082 16.5623 66.1417 13.7277 64.8798C12.972 64.531 12.2242 64.1681 11.4801 63.7951C11.2515 63.6808 11.0229 63.5666 10.7943 63.4523C10.6 63.3551 10.4057 63.2579 10.2114 63.1608C9.62631 65.7251 9.12911 68.3 8.68101 70.8916C8.57508 71.5015 8.46632 72.1107 8.35751 72.7201C8.28867 73.1154 8.22001 73.5107 8.15152 73.9061C8.10322 74.1736 8.10322 74.1736 8.05394 74.4464C7.54898 77.4254 7.56304 81.4373 9.35461 84.0084C9.428 84.0894 9.50139 84.1703 9.57701 84.2537C9.68168 84.2537 9.78635 84.2537 9.8942 84.2537C9.8942 84.3584 9.8942 84.4631 9.8942 84.5709C11.638 86.0076 13.7912 86.773 15.891 87.5247C16.0071 87.5668 16.1233 87.6088 16.2429 87.6521C18.7103 88.5085 21.2661 89.0317 23.8306 89.4972C24.0521 89.5379 24.0521 89.5379 24.2781 89.5793C27.9821 90.2574 31.655 90.837 35.4278 90.9147C35.9845 89.8804 36.4015 88.8791 36.6965 87.7428C36.736 87.5937 36.7754 87.4446 36.816 87.291C39.7772 75.7781 40.0108 62.2536 38.4411 50.4733C38.3887 50.4733 38.3364 50.4733 38.2825 50.4733Z" fill="#000000" transform="translate(32.347 33.74)" />
    <path d="M19.2492 2.29186C19.482 2.47751 19.7033 2.67737 19.9223 2.87908C19.9223 2.98375 19.9223 3.08842 19.9223 3.19626C20.1578 3.27477 20.1578 3.27477 20.398 3.35486C20.6762 3.72408 20.6762 3.72408 20.963 4.18748C21.0581 4.33876 21.1532 4.49004 21.2511 4.64591C22.7086 7.21673 22.2052 11.1684 21.4596 13.9226C20.8842 15.8861 20.096 17.7302 19.1293 19.5314C19.2601 19.6819 19.391 19.8324 19.5258 19.9874C19.9223 20.4433 19.9223 20.4433 19.9223 20.8002C20.0269 20.8002 20.1316 20.8002 20.2394 20.8002C20.7674 21.8562 20.2179 23.2332 19.9223 24.2892C20.0466 24.3023 20.1709 24.3154 20.2989 24.3289C20.7152 24.4478 20.7152 24.4478 20.9215 24.7297C21.0409 25.1091 21.0695 25.4088 21.0621 25.8058C21.0606 25.9876 21.0606 25.9876 21.0591 26.1732C21.0324 26.5095 21.0324 26.5095 20.8738 26.9853C21.04 27.0142 21.2062 27.043 21.3775 27.0727C21.5962 27.1129 21.8149 27.1531 22.0335 27.1935C22.143 27.2122 22.2525 27.2309 22.3653 27.2502C22.8124 27.3344 23.1839 27.414 23.5625 27.673C23.8918 28.1964 23.8198 28.7719 23.7285 29.3642C23.1644 30.4716 22.1473 31.0719 21.1414 31.7431C21.0422 31.8106 20.9429 31.8781 20.8407 31.9476C18.8711 33.2646 18.8711 33.2646 17.5533 33.22C17.3752 33.2162 17.1971 33.2123 17.0137 33.2083C16.5918 33.1705 16.5918 33.1705 16.4332 33.0119C16.4066 32.7009 16.4066 32.7009 16.4035 32.318C16.4012 32.1925 16.399 32.067 16.3966 31.9377C16.4332 31.5845 16.4332 31.5845 16.7504 31.1088C16.6263 31.1106 16.5022 31.1124 16.3743 31.1143C16.2139 31.1158 16.0534 31.1172 15.888 31.1187C15.728 31.1205 15.5679 31.1224 15.403 31.1243C15.0059 31.1088 15.0059 31.1088 14.8473 30.9502C14.8095 30.5698 14.8095 30.5698 14.7977 30.0977C14.7888 29.8653 14.7888 29.8653 14.7797 29.6281C14.8473 29.2056 14.8473 29.2056 15.1378 28.912C15.4816 28.7299 15.4816 28.7299 15.9574 28.7299C16.0098 28.5729 16.0621 28.4158 16.116 28.2541C16.2828 28.1609 16.2828 28.1609 16.453 28.0658C17.101 27.6573 17.5352 27.0967 18.0191 26.5095C17.5832 26.2971 17.2413 26.1446 16.7591 26.2772C16.6483 26.3212 16.5374 26.3651 16.4233 26.4104C15.5031 26.7637 14.5526 26.7757 13.5785 26.6681C13.2613 26.351 13.2613 26.351 13.1337 25.7699C12.9607 25.0204 12.598 24.5125 12.1313 23.9126C11.3582 22.8966 11.3582 22.8966 11.3582 22.5447C11.2434 22.5701 11.1287 22.5955 11.0104 22.6216C9.2039 22.953 6.96357 22.9675 5.33164 22.0689C5.1136 21.9502 5.1136 21.9502 4.89117 21.8292C4.77484 21.7513 4.65852 21.6734 4.53867 21.5931C4.53867 21.4885 4.53867 21.3838 4.53867 21.276C4.44769 21.2379 4.35672 21.1999 4.26299 21.1607C3.83218 20.9182 3.56751 20.6346 3.24018 20.2649C3.07489 20.0815 3.07489 20.0815 2.90627 19.8945C2.64586 19.5452 2.54197 19.3221 2.47695 18.897C2.37228 18.897 2.2676 18.897 2.15976 18.897C0.271294 15.2439 -0.692863 11.5655 0.573824 7.4783C1.59288 4.70885 3.88336 2.6272 6.44179 1.29314C6.59328 1.21177 6.74477 1.13041 6.90085 1.04658C10.7166 -0.729292 15.8757 -0.200081 19.2492 2.29186ZM4.18059 6.32044C2.63689 8.35909 2.03908 10.4791 2.38216 13.0272C2.88901 15.4753 4.39493 18.2269 6.44179 19.69C7.58255 20.3606 8.59832 20.6288 9.92094 20.4037C10.5613 20.2991 11.1868 20.3114 11.834 20.3244C11.8777 20.4266 11.9215 20.5288 11.9666 20.6341C12.127 21.0044 12.127 21.0044 12.5675 21.0777C12.6918 21.0908 12.8161 21.1039 12.9441 21.1174C12.6967 20.4493 12.2329 20.111 11.6754 19.69C11.1899 19.5282 10.8163 19.5049 10.3075 19.4819C8.78605 19.359 7.61285 18.7817 6.60038 17.6283C5.73043 16.3719 5.1449 15.3796 5.15322 13.822C5.15229 13.6497 5.15229 13.6497 5.15136 13.4739C5.15229 12.9668 5.17018 12.5619 5.33163 12.0775C5.92426 11.6824 6.24268 11.7276 6.94731 11.7405C7.14909 11.7434 7.35086 11.7462 7.55876 11.7492C7.71352 11.7529 7.86828 11.7565 8.02773 11.7603C8.05655 11.6085 8.05655 11.6085 8.08596 11.4537C8.11254 11.3226 8.13911 11.1916 8.1665 11.0566C8.19226 10.9259 8.21801 10.7953 8.24455 10.6607C8.27767 10.5526 8.31079 10.4444 8.34491 10.333C8.75233 10.1293 9.10073 10.1221 9.55419 10.0852C9.71324 10.0719 9.8723 10.0586 10.0362 10.0449C10.1584 10.0353 10.2807 10.0257 10.4066 10.0158C10.4066 9.80645 10.4066 9.59711 10.4066 9.38142C10.9378 9.06018 11.3375 9.02976 11.9529 9.04441C12.1872 9.0487 12.1872 9.0487 12.4262 9.05309C12.5448 9.05676 12.6634 9.06044 12.7855 9.06424C12.7855 9.16891 12.7855 9.27358 12.7855 9.38142C14.0529 9.41284 14.0529 9.41284 15.0951 8.82635C15.1703 8.6955 15.2455 8.56466 15.323 8.42986C15.7801 8.2775 16.0682 8.25448 16.5422 8.26135C16.7345 8.2635 16.7345 8.2635 16.9307 8.26569C17.0282 8.26753 17.1257 8.26937 17.2262 8.27127C18.3533 10.1983 18.2007 12.2778 17.6815 14.4143C17.6359 14.5852 17.5903 14.7561 17.5434 14.9322C17.4502 15.2823 17.3576 15.6325 17.2658 15.9829C17.2241 16.1321 17.1824 16.2814 17.1394 16.4351C17.0658 16.845 17.0909 17.0804 17.2262 17.4697C18.9321 14.2103 20.5045 10.5862 19.5258 6.85383C19.1853 5.87982 18.663 5.11804 17.8605 4.46502C17.4422 4.26856 17.4422 4.26856 17.0676 4.14783C17.0676 4.04316 17.0676 3.93848 17.0676 3.83064C12.4734 1.47252 7.57892 2.23821 4.18059 6.32044ZM15.0059 12.7119C14.983 12.8918 14.9601 13.0717 14.9365 13.2571C14.8473 13.822 14.8473 13.822 14.6887 13.9806C14.4484 14.0174 14.2069 14.046 13.9651 14.0698C13.834 14.0831 13.703 14.0964 13.568 14.1101C13.4668 14.1197 13.3656 14.1293 13.2613 14.1392C13.1567 14.4009 13.052 14.6626 12.9441 14.9322C12.4208 14.9845 11.8974 15.0369 11.3582 15.0908C11.3157 14.9665 11.2732 14.8422 11.2293 14.7141C11.0651 14.2532 11.0651 14.2532 10.5652 13.9806C10.5508 14.1496 10.5508 14.1496 10.5361 14.322C10.5228 14.4678 10.5095 14.6135 10.4958 14.7637C10.483 14.9091 10.4701 15.0544 10.4568 15.2042C10.4066 15.5666 10.4066 15.5666 10.248 15.7252C9.98131 15.7621 9.71338 15.7906 9.44516 15.8144C9.22652 15.8343 9.22652 15.8343 9.00345 15.8546C8.89081 15.8643 8.77816 15.8739 8.6621 15.8838C8.61958 15.7856 8.57706 15.6875 8.53325 15.5864C8.35196 15.2019 8.35196 15.2019 7.86913 14.9322C7.97381 15.1939 8.07848 15.4556 8.18632 15.7252C8.291 15.7252 8.39567 15.7252 8.50351 15.7252C8.54522 15.8194 8.58692 15.9137 8.62989 16.0108C8.97334 16.6386 9.44721 17.0045 10.0894 17.3111C10.6479 17.3841 11.1957 17.4008 11.7584 17.4183C13.0271 17.5366 13.9122 18.255 14.8473 19.0556C14.8534 18.7962 14.8534 18.7962 14.8596 18.5315C14.9138 16.944 15.1246 15.4736 15.507 13.9323C15.6637 13.3433 15.6637 13.3433 15.6402 12.7119C15.4309 12.7119 15.2215 12.7119 15.0059 12.7119ZM17.5434 22.0689C17.5434 22.1736 17.5434 22.2783 17.5434 22.3861C17.3863 22.3861 17.2293 22.3861 17.0676 22.3861C17.0676 22.4908 17.0676 22.5955 17.0676 22.7033C17.2246 22.7556 17.3816 22.808 17.5434 22.8619C17.7004 22.6525 17.8574 22.4432 18.0191 22.2275C17.8621 22.1752 17.7051 22.1228 17.5434 22.0689Z" fill="#000000" transform="translate(16.927 17.104)" />
    <path d="M5.24686 0.0235405C5.39283 0.0157738 5.5388 0.00800323 5.68919 0C6.0993 0.0830154 6.0993 0.0830154 6.44251 0.406395C6.78055 0.951569 6.99173 1.49333 7.16981 2.10508C7.22104 2.27993 7.22104 2.27993 7.27331 2.45832C7.61459 3.73066 7.852 5.37271 7.39159 6.63988C7.03664 7.15178 6.51141 7.46652 5.91655 7.63171C4.33987 7.85447 2.6486 7.87677 1.1829 7.21973C1.07618 7.17844 0.969463 7.13714 0.859512 7.09459C0.432095 6.83065 0.285053 6.56204 0.0727386 6.10957C-0.177021 4.63806 0.231461 3.52602 1.06705 2.33306C1.4701 1.82124 1.93621 1.42793 2.45164 1.03458C2.57922 0.907009 2.57922 0.907009 2.70936 0.776863C3.43124 0.0549774 4.28093 0.0699043 5.24686 0.0235405ZM3.7204 1.98614C3.41545 2.2107 3.41545 2.2107 3.24462 2.46192C3.24462 2.56659 3.24462 2.67126 3.24462 2.77911C3.1563 2.81182 3.06799 2.84453 2.97699 2.87823C2.31112 3.27415 1.76058 3.94811 1.50009 4.68224C1.40757 5.07872 1.40757 5.07872 1.50009 5.4752C2.21942 6.26197 3.11105 6.38722 4.1268 6.47633C4.88266 6.40761 5.52403 6.22861 6.05222 5.66043C6.42858 5.03129 6.25114 4.42035 6.09931 3.73067C5.88023 3.02301 5.64955 2.32661 5.30634 1.66895C4.63589 1.44547 4.33833 1.67718 3.7204 1.98614Z" fill="#000000" transform="translate(55.491 58.279)" />
    <path d="M2.42156 0.0123901C2.61047 0.0062561 2.61047 0.0062561 2.80318 0C2.91276 0.0171738 3.02234 0.0343437 3.13524 0.0520401C4.12095 1.53061 3.28507 4.43399 2.97664 6.0786C2.60666 7.87593 2.60666 7.87593 2.18367 8.29891C1.8225 8.35219 1.8225 8.35219 1.40062 8.35838C1.1924 8.36513 1.1924 8.36513 0.979973 8.37201C0.597733 8.29891 0.597733 8.29891 0.338974 8.02946C-0.352882 6.86608 0.199982 4.87946 0.375565 3.61122C0.419914 3.28895 0.461533 2.9664 0.502953 2.64375C0.530548 2.43921 0.558151 2.23466 0.586586 2.02393C0.611496 1.83921 0.636414 1.65448 0.662086 1.46416C0.756332 1.0036 0.756332 1.0036 1.07352 0.527821C1.17818 0.527821 1.28286 0.527821 1.3907 0.527821C1.3907 0.423149 1.3907 0.318478 1.3907 0.210632C1.76198 0.0249977 2.00819 0.020443 2.42156 0.0123901Z" fill="#000000" transform="translate(65.591 47.209)" />
    <path d="M2.40183 0.0137348C2.65825 0.0239868 2.65825 0.0239868 2.91985 0.0344486C3.0991 0.0427418 3.27836 0.051033 3.46304 0.0595779C3.6471 0.067564 3.83116 0.0755482 4.02079 0.0837765C4.55192 0.10746 5.08294 0.132809 5.61397 0.158699C5.74818 0.164858 5.8824 0.171015 6.02068 0.177361C8.85459 0.310627 8.85459 0.310627 9.7275 1.13008C9.86702 1.25827 9.86702 1.25827 10.0094 1.38904C10.1103 1.48656 10.1103 1.48656 10.2132 1.58604C9.72521 2.10887 9.32518 2.49275 8.596 2.57865C8.40571 2.57918 8.40571 2.57918 8.21156 2.57973C7.99221 2.58069 7.99221 2.58069 7.76842 2.58167C7.61025 2.58021 7.45208 2.57875 7.28912 2.57725C7.12471 2.57641 6.9603 2.57557 6.79092 2.5747C5.40142 2.55847 4.01684 2.48856 2.63043 2.39883C2.43009 2.38641 2.22975 2.37399 2.02335 2.3612C1.83668 2.34786 1.65002 2.33452 1.4577 2.32078C1.29173 2.30915 1.12577 2.29752 0.954776 2.28554C0.538971 2.22042 0.538971 2.22042 0.0631897 1.90323C0 1.57117 0 1.57117 0.00371706 1.18956C0.0024904 1.06362 0.00126386 0.937691 0 0.807941C0.0208526 0.698362 0.0417053 0.588785 0.0631897 0.475885C0.80609 -0.0193806 1.52808 -0.0232792 2.40183 0.0137348Z" fill="#000000" transform="translate(1.737 16.335)" />
    <path d="M0.672815 0C1.03917 0 1.40552 0 1.78297 0C2.1442 0.576724 2.14463 1.07364 2.15467 1.74515C2.15699 1.85276 2.15931 1.96037 2.1617 2.07124C2.16905 2.41498 2.17448 2.75871 2.17945 3.10249C2.20786 5.10746 2.20786 5.10746 2.50547 7.08844C2.67177 7.9509 2.72689 8.90179 2.25875 9.67422C1.99113 9.92202 1.99113 9.92202 1.62438 9.99141C1.00561 9.7247 0.634214 9.56429 0.296154 8.98037C0.0122147 7.78782 0.00891876 6.61903 0.00905228 5.40051C0.00870705 5.04903 0.00582886 4.69762 0.00281906 4.34615C-0.00973129 1.25172 -0.00973129 1.25172 0.672815 0Z" fill="#000000" transform="translate(26.344 0)" />
    <path d="M2.11521 0.0123901C2.24073 0.00830078 2.36626 0.00421143 2.49559 0C2.93686 0.0650291 3.04834 0.184574 3.32449 0.527821C3.42542 1.79148 3.20952 3.04377 3.03704 4.29442C3.01077 4.5007 2.9845 4.70697 2.95743 4.9195C2.93034 5.11801 2.90325 5.31652 2.87534 5.52104C2.83922 5.79021 2.83922 5.79021 2.80236 6.06482C2.68422 6.58009 2.52793 6.92338 2.21433 7.34735C1.83767 7.44151 1.83767 7.44151 1.42136 7.42664C1.28398 7.42501 1.1466 7.42337 1.00505 7.42169C0.628391 7.34735 0.628391 7.34735 0.345276 7.16335C-0.408627 6.02159 0.270451 3.86002 0.519398 2.6063C1.06674 0.0327492 1.06674 0.0327492 2.11521 0.0123901Z" fill="#000000" transform="translate(56.362 45.94)" />
    <path d="M5.8361 0.0112686C6.00337 0.00940323 6.17063 0.00753784 6.34297 0.00561523C6.56279 0.00283432 6.56279 0.00283432 6.78704 0C7.43637 0.0338097 7.88585 0.192997 8.46107 0.496883C8.59488 0.805397 8.59488 0.805397 8.61966 1.13126C7.93619 1.95143 7.39383 2.24318 6.34959 2.36679C5.49156 2.4337 4.63107 2.4295 3.7709 2.4294C3.43474 2.42974 3.09867 2.43264 2.76253 2.43563C2.54684 2.4361 2.33115 2.43641 2.11546 2.43656C1.92171 2.43721 1.72797 2.43786 1.52836 2.43853C0.984538 2.39833 0.456728 2.32536 0.0555965 1.92423C-0.018532 1.00504 -0.018532 1.00504 0.0555965 0.655476C0.572118 0.151165 0.984304 0.115101 1.69109 0.0985413C1.88797 0.0929184 2.08484 0.0872955 2.28768 0.0815048C2.49314 0.0779266 2.6986 0.0743484 2.91028 0.0706635C3.11084 0.0652466 3.31139 0.0598259 3.51802 0.054245C4.29065 0.0347519 5.06336 0.0251617 5.8361 0.0112686Z" fill="#000000" transform="translate(0 35.662)" />
    <path d="M6.04213 0.44659C6.32468 0.80286 6.35407 1.03799 6.40887 1.48736C6.35931 1.87393 6.35931 1.87393 6.17006 2.12909C5.79206 2.42015 5.52968 2.4285 5.05587 2.45999C4.89498 2.47205 4.73409 2.48411 4.56832 2.49654C4.31656 2.51218 4.31656 2.51218 4.05971 2.52813C3.72762 2.55119 3.39556 2.57471 3.06354 2.59876C2.91624 2.60819 2.76894 2.61762 2.61718 2.62733C2.21335 2.65533 2.21335 2.65533 1.7601 2.8255C1.48605 2.83628 1.21162 2.83897 0.937393 2.83541C0.794491 2.83398 0.651588 2.83255 0.504356 2.83107C0.395393 2.82923 0.286427 2.82739 0.17416 2.8255C-0.0355453 2.40608 0.000221252 2.08366 0.00565338 1.61622C0.00708389 1.45717 0.00851822 1.29811 0.00999069 1.13424C0.0118294 1.01199 0.0136719 0.889736 0.0155678 0.763779C1.76043 0.0341091 4.27047 -0.358706 6.04213 0.44659Z" fill="#000000" transform="translate(43.177 17.633)" />
    <path d="M0 0C0.634377 0.158592 0.634377 0.158592 0.634377 0.158592C0.634377 0.158592 0 0 0 0Z" fill="#000000" transform="translate(58.894 66.292)" />
  </g>
</svg>